<?xml version="1.0" encoding="UTF-8" standalone="no"?>
<!DOCTYPE svg PUBLIC "-//W3C//DTD SVG 1.1//EN"
"http://www.w3.org/Graphics/SVG/1.1/DTD/svg11.dtd">
<svg viewBox="0 0 909 1286" version="1.1" xmlns="http://www.w3.org/2000/svg" xmlns:xlink="http://www.w3.org/1999/xlink">
<defs>
<style type="text/css"><![CDATA[
.g1_6{
fill: none;
stroke: #000000;
stroke-width: 0.7609861;
stroke-linecap: butt;
stroke-linejoin: miter;
}
]]></style>
</defs>
<path d="M96.2,97.8l74.6,0" class="g1_6" />
<path d="M96.6,207.8l0,-109.6" class="g1_6" />
<image preserveAspectRatio="none" x="97" y="98" width="73" height="110" xlink:href="img/1.png" />
<path d="M170.4,207.8l0,-109.6" class="g1_6" />
<path d="M96.2,208.1l74.6,0" class="g1_6" />
<path d="M175.5,97.8l74.6,0" class="g1_6" />
<path d="M175.9,207.8l0,-109.6" class="g1_6" />
<image preserveAspectRatio="none" x="176" y="98" width="73" height="110" xlink:href="img/2.png" />
<path d="M249.7,207.8l0,-109.6" class="g1_6" />
<path d="M175.5,208.1l74.6,0" class="g1_6" />
<path d="M254.8,97.8l74.6,0" class="g1_6" />
<path d="M255.2,207.8l0,-109.6" class="g1_6" />
<image preserveAspectRatio="none" x="256" y="98" width="73" height="110" xlink:href="img/3.png" />
<path d="M329,207.8L329,98.2" class="g1_6" />
<path d="M254.8,208.1l74.6,0" class="g1_6" />
<path d="M334,97.8l74.6,0" class="g1_6" />
<path d="M334.4,207.8l0,-109.6" class="g1_6" />
<image preserveAspectRatio="none" x="335" y="98" width="73" height="110" xlink:href="img/4.png" />
<path d="M408.2,207.8l0,-109.6" class="g1_6" />
<path d="M334,208.1l74.6,0" class="g1_6" />
<path d="M413.3,97.8l74.6,0" class="g1_6" />
<path d="M413.7,207.8l0,-109.6" class="g1_6" />
<image preserveAspectRatio="none" x="414" y="98" width="73" height="110" xlink:href="img/5.png" />
<path d="M487.5,207.8l0,-109.6" class="g1_6" />
<path d="M413.3,208.1l74.6,0" class="g1_6" />
<path d="M492.6,97.8l74.6,0" class="g1_6" />
<path d="M493,207.8L493,98.2" class="g1_6" />
<image preserveAspectRatio="none" x="493" y="98" width="73" height="110" xlink:href="img/6.png" />
<path d="M566.8,207.8l0,-109.6" class="g1_6" />
<path d="M492.6,208.1l74.6,0" class="g1_6" />
<path d="M611.5,97.8l74.6,0" class="g1_6" />
<path d="M611.9,207.8l0,-109.6" class="g1_6" />
<image preserveAspectRatio="none" x="612" y="98" width="73" height="110" xlink:href="img/7.png" />
<path d="M685.7,207.8l0,-109.6" class="g1_6" />
<path d="M611.5,208.1l74.6,0" class="g1_6" />
<path d="M690.8,97.8l74.6,0" class="g1_6" />
<path d="M691.2,207.8l0,-109.6" class="g1_6" />
<image preserveAspectRatio="none" x="692" y="98" width="73" height="110" xlink:href="img/8.png" />
<path d="M765,207.8L765,98.2" class="g1_6" />
<path d="M690.8,208.1l74.6,0" class="g1_6" />
<path d="M770.1,97.8l74.5,0" class="g1_6" />
<path d="M770.4,207.8l0,-109.6" class="g1_6" />
<image preserveAspectRatio="none" x="771" y="98" width="73" height="110" xlink:href="img/9.png" />
<path d="M844.3,207.8l0,-109.6" class="g1_6" />
<path d="M770.1,208.1l74.5,0" class="g1_6" />
<image preserveAspectRatio="none" x="157" y="281" width="274" height="175" xlink:href="img/10.png" />
<image preserveAspectRatio="none" x="445" y="278" width="329" height="178" xlink:href="img/11.png" />
</svg>