<?xml version="1.0" encoding="UTF-8" standalone="no"?>
<!DOCTYPE svg PUBLIC "-//W3C//DTD SVG 1.1//EN"
"http://www.w3.org/Graphics/SVG/1.1/DTD/svg11.dtd">
<svg viewBox="0 0 909 1286" version="1.1" xmlns="http://www.w3.org/2000/svg" xmlns:xlink="http://www.w3.org/1999/xlink">
<defs>
<clipPath id="c0_8"><path d="M397.1,137l0,-4.2l22.6,0l0,4.2Z" /></clipPath>
<clipPath id="c1_8"><path d="M214,310.8L214,184l20.7,0l0,126.8Z" /></clipPath>
<clipPath id="c2_8"><path d="M296.8,310.8l0,-109.9l20.7,0l0,109.9Z" /></clipPath>
<clipPath id="c3_8"><path d="M379.5,310.8l0,-119.2l20.7,0l0,119.2Z" /></clipPath>
<clipPath id="c4_8"><path d="M397.1,145.3l0,-4.2l22.6,0l0,4.2Z" /></clipPath>
<clipPath id="c5_8"><path d="M234.7,310.8l0,-126.7l20.7,0l0,126.7Z" /></clipPath>
<clipPath id="c6_8"><path d="M317.4,310.8l0,-135.4l20.8,0l0,135.4Z" /></clipPath>
<clipPath id="c7_8"><path d="M400.2,310.8l0,-126.7l20.7,0l0,126.7Z" /></clipPath>
<clipPath id="c8_8"><path d="M735.3,137l0,-4.2l22.5,0l0,4.2Z" /></clipPath>
<clipPath id="c9_8"><path d="M552.1,310.8l0,-109.9l20.7,0l0,109.9Z" /></clipPath>
<clipPath id="c10_8"><path d="M634.9,310.8l0,-118.5l20.7,0l0,118.5Z" /></clipPath>
<clipPath id="c11_8"><path d="M717.6,310.8l0,-114.2l20.8,0l0,114.2Z" /></clipPath>
<clipPath id="c12_8"><path d="M735.3,145.3l0,-4.2l22.5,0l0,4.2Z" /></clipPath>
<clipPath id="c13_8"><path d="M572.8,310.8l0,-132l20.8,0l0,132Z" /></clipPath>
<clipPath id="c14_8"><path d="M655.6,310.8l0,-120.2l20.7,0l0,120.2Z" /></clipPath>
<clipPath id="c15_8"><path d="M738.3,310.8l0,-126.1l20.8,0l0,126.1Z" /></clipPath>
<clipPath id="c16_8"><path d="M397.1,452.4l0,-4.1l22.6,0l0,4.1Z" /></clipPath>
<clipPath id="c17_8"><path d="M214,626.2l0,-124.4l20.7,0l0,124.4Z" /></clipPath>
<clipPath id="c18_8"><path d="M296.8,626.2l0,-109.6l20.7,0l0,109.6Z" /></clipPath>
<clipPath id="c19_8"><path d="M379.5,626.2l0,-125.5l20.7,0l0,125.5Z" /></clipPath>
<clipPath id="c20_8"><path d="M397.1,460.7l0,-4.1l22.6,0l0,4.1Z" /></clipPath>
<clipPath id="c21_8"><path d="M234.7,626.2l0,-105.9l20.7,0l0,105.9Z" /></clipPath>
<clipPath id="c22_8"><path d="M317.4,626.2l0,-94.4l20.8,0l0,94.4Z" /></clipPath>
<clipPath id="c23_8"><path d="M400.2,626.2l0,-103.6l20.7,0l0,103.6Z" /></clipPath>
<clipPath id="c24_8"><path d="M735.3,452.4l0,-4.1l22.5,0l0,4.1Z" /></clipPath>
<clipPath id="c25_8"><path d="M552.1,626.2l0,-134.9l20.7,0l0,134.9Z" /></clipPath>
<clipPath id="c26_8"><path d="M634.9,626.2l0,-121.8l20.7,0l0,121.8Z" /></clipPath>
<clipPath id="c27_8"><path d="M717.6,626.2l0,-127.1l20.8,0l0,127.1Z" /></clipPath>
<clipPath id="c28_8"><path d="M735.3,460.7l0,-4.1l22.5,0l0,4.1Z" /></clipPath>
<clipPath id="c29_8"><path d="M572.8,626.2l0,-129.1l20.8,0l0,129.1Z" /></clipPath>
<clipPath id="c30_8"><path d="M655.6,626.2l0,-110.4l20.7,0l0,110.4Z" /></clipPath>
<clipPath id="c31_8"><path d="M738.3,626.2l0,-123.2l20.8,0l0,123.2Z" /></clipPath>
<style type="text/css"><![CDATA[
.g1_8{
fill: none;
stroke: #000000;
stroke-width: 0.15277778;
stroke-linecap: butt;
stroke-linejoin: miter;
stroke-dasharray: 1,1;
}
.g2_8{
fill: none;
stroke: #000000;
stroke-width: 0.4150972;
stroke-linecap: butt;
stroke-linejoin: miter;
}
.g3_8{
fill: #FFFFFF;
}
.g4_8{
fill: none;
stroke: #000000;
stroke-width: 0.15277778;
stroke-linecap: butt;
stroke-linejoin: miter;
}
.g5_8{
fill: none;
stroke: #000000;
stroke-width: 0.2075486;
stroke-linecap: butt;
stroke-linejoin: miter;
}
.g6_8{
fill: none;
stroke: #000000;
stroke-width: 0.8301944;
stroke-linecap: butt;
stroke-linejoin: miter;
}
.g7_8{
fill: none;
stroke: #000000;
stroke-width: 0.8301944;
stroke-linecap: round;
stroke-linejoin: miter;
}
.g8_8{
fill: none;
stroke: #000000;
stroke-width: 0.15277778;
stroke-linecap: butt;
stroke-linejoin: miter;
stroke-dasharray: 4,5;
}
.g9_8{
fill: none;
stroke: #000000;
stroke-width: 0.2075486;
stroke-linecap: butt;
stroke-linejoin: miter;
stroke-dasharray: 4,5;
}
.g10_8{
fill: #F2F2F2;
}
.g11_8{
fill: none;
stroke: #000000;
stroke-width: 0.2075486;
stroke-linecap: butt;
stroke-linejoin: miter;
stroke-dasharray: 10,4,2,4;
}
]]></style>
</defs>
<path d="M182.9,310.8l269,0" class="g1_8" />
<path d="M182.9,310.8l2.7,0m266.3,0l-2.6,0" class="g2_8" />
<path d="M182.9,280.3l269,0" class="g1_8" />
<path d="M182.9,280.3l2.7,0m266.3,0l-2.6,0" class="g2_8" />
<path d="M182.9,249.9l269,0" class="g1_8" />
<path d="M182.9,249.9l2.7,0m266.3,0l-2.6,0" class="g2_8" />
<path d="M182.9,219.4l269,0" class="g1_8" />
<path d="M182.9,219.4l2.7,0m266.3,0l-2.6,0" class="g2_8" />
<path d="M182.9,189l269,0" class="g1_8" />
<path d="M182.9,189l2.7,0m266.3,0l-2.6,0" class="g2_8" />
<path d="M182.9,158.6l269,0" class="g1_8" />
<path d="M182.9,158.6l2.7,0m266.3,0l-2.6,0" class="g2_8" />
<path d="M182.9,128.1l269,0" class="g1_8" />
<path d="M182.9,128.1l2.7,0m266.3,0l-2.6,0" class="g2_8" />
<path d="M224.3,310.8l0,-2.6" class="g2_8" />
<path d="M307.1,310.8l0,-2.6" class="g2_8" />
<path d="M389.9,310.8l0,-2.6" class="g2_8" />
<path d="M182.9,128.1l0,182.7l269,0l0,-182.7l-269,0Z" class="g2_8" />
<path d="M397.1,132.8l0,4.2l22.6,0l0,-4.2l-22.6,0Z" class="g3_8" />
<g clip-path="url(#c0_8)">
<path d="M397.1,137l22.6,0l0,-4.2l-22.6,0Zm11.3,14.1L392.2,134.9m18.6,13.9L394.5,132.5m18.6,13.9L396.9,130.2m18.6,13.9L399.2,127.8m18.6,13.9L401.6,125.5m18.5,13.9L403.9,123.2M422.5,137L406.3,120.8m18.5,13.9L408.6,118.5" class="g4_8" />
</g>
<path d="M397.1,132.8l0,4.2l22.6,0l0,-4.2l-22.6,0Z" class="g5_8" />
<path d="M214,184l0,126.8l20.7,0l0,-126.8L214,184Z" class="g3_8" />
<g clip-path="url(#c1_8)">
<path d="M214,310.8l20.7,0l0,-126.8L214,184Zm10.4,27.4L133.5,247.4m93.2,88.5L135.8,245M229,333.5L138.2,242.7m93.2,88.5L140.5,240.3m93.2,88.5L142.9,238m93.2,88.5L145.2,235.6m93.2,88.5L147.6,233.3m93.2,88.5L149.9,230.9m93.2,88.5L152.3,228.6m93.2,88.5L154.6,226.2m93.2,88.5L157,223.9m93.2,88.5L159.3,221.5M252.5,310L161.7,219.2m93.2,88.5L164,216.8m93.2,88.5L166.4,214.5M259.6,303L168.7,212.1m93.2,88.6L171.1,209.8m93.2,88.5L173.4,207.4M266.6,296L175.8,205.1M269,293.6L178.1,202.7m93.2,88.6L180.5,200.4m93.2,88.5L182.8,198.1M276,286.6L185.2,195.7m93.2,88.5L187.5,193.4m93.2,88.5L189.8,191m93.3,88.5L192.2,188.7m93.2,88.5L194.5,186.3m93.3,88.5L196.9,184m93.2,88.5L199.2,181.6m93.2,88.5L201.6,179.3m93.2,88.5L203.9,176.9m93.2,88.5L206.3,174.6m93.2,88.5L208.6,172.2m93.2,88.5L211,169.9m93.2,88.5L213.3,167.5M306.5,256L215.7,165.2m93.2,88.5L218,162.8m93.2,88.5L220.4,160.5M313.6,249L222.7,158.1m93.2,88.5L225.1,155.8" class="g4_8" />
</g>
<path d="M214,184l0,126.8l20.7,0l0,-126.8L214,184Z" class="g5_8" />
<path d="M296.8,200.9l0,109.9l20.7,0l0,-109.9l-20.7,0Z" class="g3_8" />
<g clip-path="url(#c2_8)">
<path d="M296.8,310.8l20.7,0l0,-109.9l-20.7,0Zm10.3,24.1L228,255.8m81.5,76.8L230.4,253.5m81.4,76.7L232.7,251.1m81.5,76.8L235.1,248.8m81.4,76.7L237.4,246.4m81.5,76.8L239.8,244.1m81.4,76.7L242.1,241.7m81.5,76.8L244.5,239.4m81.4,76.7L246.8,237m81.5,76.8L249.2,234.7m81.4,76.7L251.5,232.3M333,309.1L253.9,230m81.4,76.7L256.2,227.6m81.4,76.8l-79,-79.1M340,302L260.9,222.9m81.4,76.8l-79,-79.1m81.4,76.7L265.6,218.2M347,295L267.9,215.9m81.5,76.7L270.3,213.5m81.4,76.8L272.6,211.2m81.5,76.7L275,208.8m81.4,76.8L277.3,206.5m81.5,76.7l-79.1,-79m81.4,76.7L282,201.8m81.5,76.7l-79.1,-79m81.4,76.7L286.7,197.1m81.5,76.8L289.1,194.8m81.4,76.7L291.4,192.4m81.5,76.8L293.8,190.1m81.4,76.7L296.1,187.7m81.5,76.8L298.5,185.4m81.4,76.7L300.8,183m81.5,76.8L303.2,180.7m81.4,76.7L305.5,178.3M387,255.1L307.9,176" class="g4_8" />
</g>
<path d="M296.8,200.9l0,109.9l20.6,0l0,-109.9l-20.6,0Z" class="g5_8" />
<path d="M379.5,191.6l0,119.2l20.7,0l0,-119.2l-20.7,0Z" class="g3_8" />
<g clip-path="url(#c3_8)">
<path d="M379.5,310.8l20.7,0l0,-119.2l-20.7,0Zm10.4,25.9L304.3,251.2m87.9,83.2L306.7,248.8M394.6,332L309,246.5m87.9,83.2L311.3,244.1m88,83.2L313.7,241.8M401.6,325L316,239.4m88,83.2L318.4,237.1m87.9,83.2L320.7,234.7m88,83.2L323.1,232.4M411,315.6L325.4,230m88,83.2L327.8,227.7m87.9,83.2L330.1,225.3M418,308.6L332.5,223m87.9,83.2L334.8,220.6m87.9,83.3L337.2,218.3m87.9,83.2L339.5,215.9m87.9,83.3L341.9,213.6m87.9,83.2L344.2,211.2m87.9,83.3L346.6,208.9m87.9,83.2L348.9,206.5m87.9,83.3L351.3,204.2m87.9,83.2L353.6,201.9m87.9,83.2L356,199.5m87.9,83.2L358.3,197.2m87.9,83.2L360.7,194.8M448.6,278L363,192.5m87.9,83.2L365.4,190.1m87.9,83.2L367.7,187.8M455.6,271L370.1,185.4M458,268.6L372.4,183.1m87.9,83.2L374.7,180.7m88,83.2L377.1,178.4M465,261.6L379.4,176m88,83.2L381.8,173.7m87.9,83.2L384.1,171.3m88,83.2L386.5,169m87.9,83.2L388.8,166.6m88,83.2L391.2,164.3" class="g4_8" />
</g>
<path d="M379.5,191.6l0,119.2l20.7,0l0,-119.2l-20.7,0Z" class="g5_8" />
<path d="M224.3,216.1l0,-64.2M223,216.1l2.6,0M223,151.9l2.6,0m81.5,82.8l0,-67.6m-1.3,67.6l2.6,0m-2.6,-67.6l2.6,0m81.5,50.7l0,-52.4m-1.3,52.4l2.6,0m-2.6,-52.4l2.6,0" class="g6_8" />
<path d="M224.3,184l0,0" class="g7_8" />
<path d="M307.1,200.9l0,0" class="g7_8" />
<path d="M389.9,191.6l0,0" class="g7_8" />
<path d="M397.1,141.1l0,4.2l22.6,0l0,-4.2l-22.6,0Z" class="g3_8" />
<g clip-path="url(#c4_8)">
<path d="M397.1,145.3l22.6,0l0,-4.2l-22.6,0Zm-4.9,-2.1L408.4,127m-13.9,18.5l16.3,-16.2m-13.9,18.6l16.2,-16.2m-13.9,18.5L415.5,134m-13.9,18.6l16.2,-16.2m-13.9,18.5l16.2,-16.2m-13.8,18.6l16.2,-16.2m-13.9,18.5l16.2,-16.2" class="g8_8" />
</g>
<path d="M397.1,141.1l0,4.2l22.6,0l0,-4.2l-22.6,0Z" class="g9_8" />
<path d="M234.7,184.1l0,126.7l20.7,0l0,-126.7l-20.7,0Z" class="g3_8" />
<g clip-path="url(#c5_8)">
<path d="M234.7,310.8l20.7,0l0,-126.7l-20.7,0ZM154.3,247.4L245,156.7m-88.4,93.1L247.4,159M159,252.1l90.7,-90.8m-88.4,93.2l90.8,-90.8m-88.4,93.1L254.4,166M166,259.2l90.8,-90.8m-88.4,93.1l90.7,-90.8m-88.4,93.2l90.8,-90.8m-88.4,93.1l90.7,-90.8m-88.4,93.2l90.8,-90.8m-88.5,93.1l90.8,-90.8m-88.4,93.2l90.8,-90.8m-88.5,93.1l90.8,-90.8M184.8,278l90.8,-90.8m-88.5,93.1l90.8,-90.8m-88.4,93.1l90.8,-90.7M191.8,285l90.8,-90.8m-88.4,93.1L285,196.6m-88.5,93.1l90.8,-90.8M198.9,292l90.8,-90.7m-88.5,93.1L292,203.6m-88.4,93.1L294.4,206m-88.5,93.1l90.8,-90.8m-88.4,93.1l90.8,-90.7m-88.5,93.1L301.4,213M213,306.1l90.7,-90.7m-88.4,93.1l90.8,-90.8m-88.4,93.1l90.7,-90.7M220,313.2l90.8,-90.8m-88.4,93.1l90.7,-90.8m-88.4,93.2l90.8,-90.8m-88.4,93.1l90.7,-90.8m-88.4,93.2l90.8,-90.8m-88.4,93.1l90.7,-90.8m-88.4,93.2l90.8,-90.8m-88.4,93.1l90.7,-90.8M238.8,332l90.8,-90.8m-88.5,93.1l90.8,-90.8m-88.4,93.2l90.8,-90.8M245.8,339l90.8,-90.8" class="g8_8" />
</g>
<path d="M234.7,184.1l0,126.7l20.7,0l0,-126.7l-20.7,0Z" class="g9_8" />
<path d="M317.4,175.4l0,135.4l20.8,0l0,-135.4l-20.8,0Z" class="g3_8" />
<g clip-path="url(#c6_8)">
<path d="M317.4,310.8l20.8,0l0,-135.4l-20.8,0ZM231,243.1l96.8,-96.8m-94.5,99.1l96.8,-96.8m-94.4,99.2L332.5,151M238,250.1l96.8,-96.8m-94.4,99.2l96.8,-96.8m-94.5,99.1L339.5,158m-94.4,99.2l96.8,-96.9m-94.5,99.2l96.8,-96.8m-94.5,99.2L346.6,165m-94.5,99.2l96.8,-96.8m-94.5,99.2l96.9,-96.9m-94.5,99.2l96.8,-96.8m-94.5,99.2L356,174.4m-94.5,99.2l96.8,-96.8M263.8,276l96.9,-96.9m-94.5,99.2L363,181.5m-94.5,99.2l96.9,-96.9M270.9,283l96.8,-96.8m-94.5,99.2l96.9,-96.9m-94.5,99.2l96.8,-96.8m-94.5,99.2l96.9,-96.9m-94.5,99.2l96.8,-96.8m-94.5,99.1l96.9,-96.8M285,297.1l96.8,-96.8m-94.5,99.1l96.8,-96.8m-94.4,99.2L386.5,205M292,304.1l96.8,-96.8m-94.4,99.2l96.8,-96.8m-94.5,99.1L393.5,212m-94.4,99.2l96.8,-96.8m-94.5,99.1l96.8,-96.8m-94.4,99.2l96.8,-96.8m-94.5,99.1l96.8,-96.8m-94.4,99.2l96.8,-96.9m-94.5,99.2l96.8,-96.8m-94.5,99.2L410,228.4m-94.5,99.2l96.8,-96.8M317.8,330l96.9,-96.9m-94.5,99.2L417,235.5m-94.5,99.2l96.9,-96.9M324.9,337l96.8,-96.8m-94.5,99.2l96.9,-96.9m-94.5,99.2l96.8,-96.8" class="g8_8" />
</g>
<path d="M317.4,175.4l0,135.4l20.7,0l0,-135.4l-20.7,0Z" class="g9_8" />
<path d="M400.2,184.1l0,126.7l20.7,0l0,-126.7l-20.7,0Z" class="g3_8" />
<g clip-path="url(#c7_8)">
<path d="M400.2,310.8l20.7,0l0,-126.7l-20.7,0ZM319.8,247.4l90.8,-90.7m-88.5,93.1L412.9,159m-88.4,93.1l90.8,-90.7m-88.5,93.1l90.8,-90.8m-88.4,93.1L420,166m-88.5,93.2l90.8,-90.8m-88.4,93.1l90.8,-90.8m-88.5,93.2L427,173.1m-88.4,93.1l90.7,-90.8m-88.4,93.2l90.8,-90.8m-88.4,93.1L434,180.1m-88.4,93.2l90.8,-90.8M348,275.6l90.7,-90.8M350.3,278l90.8,-90.8m-88.4,93.1l90.7,-90.8M355,282.6l90.8,-90.7M357.4,285l90.7,-90.8m-88.4,93.1l90.8,-90.7m-88.4,93.1l90.7,-90.8M364.4,292l90.8,-90.7m-88.4,93.1l90.7,-90.8m-88.4,93.1L459.9,206m-88.4,93.1l90.7,-90.8m-88.4,93.1l90.8,-90.7m-88.5,93.1L466.9,213m-88.4,93.1l90.8,-90.7m-88.5,93.1l90.8,-90.8m-88.4,93.1L474,220.1m-88.5,93.1l90.8,-90.8m-88.4,93.1l90.8,-90.7m-88.5,93.1L481,227.1m-88.4,93.1l90.8,-90.8m-88.5,93.2l90.8,-90.8m-88.4,93.1l90.8,-90.8m-88.5,93.2l90.8,-90.8M402,329.6l90.7,-90.8M404.3,332l90.8,-90.8m-88.4,93.1l90.7,-90.8M409,336.7l90.8,-90.8M411.4,339l90.7,-90.8" class="g8_8" />
</g>
<path d="M400.2,184.1l0,126.7l20.7,0l0,-126.7l-20.7,0Z" class="g9_8" />
<path d="M245,201.9l0,-35.6m-1.3,35.6l2.6,0m-2.6,-35.6l2.6,0M327.8,195l0,-39m-1.3,39l2.6,0m-2.6,-39l2.6,0m81.4,44.6l0,-32.9m-1.2,32.9l2.5,0m-2.5,-32.9l2.5,0" class="g6_8" />
<path d="M245,184.1l0,0" class="g7_8" />
<path d="M327.8,175.4l0,0" class="g7_8" />
<path d="M410.5,184.1l0,0" class="g7_8" />
<path d="M397.1,149.4l0,4.2l22.6,0l0,-4.2l-22.6,0Z" class="g10_8" />
<path d="M397.1,149.4l0,4.2l22.6,0l0,-4.2l-22.6,0Z" class="g11_8" />
<path d="M255.4,184.2l0,126.6l20.7,0l0,-126.6l-20.7,0Z" class="g10_8" />
<path d="M255.4,184.3l0,126.5l20.7,0l0,-126.5l-20.7,0Z" class="g11_8" />
<path d="M338.1,181.8l0,129l20.8,0l0,-129l-20.8,0Z" class="g10_8" />
<path d="M338.1,181.8l0,129l20.7,0l0,-129l-20.7,0Z" class="g11_8" />
<path d="M420.9,186.1l0,124.7l20.7,0l0,-124.7l-20.7,0Z" class="g10_8" />
<path d="M420.9,186.1l0,124.7l20.7,0l0,-124.7l-20.7,0Z" class="g11_8" />
<path d="M265.7,204.4l0,-40.2m-1.3,40.2l2.6,0m-2.6,-40.2l2.6,0m81.5,34.5l0,-33.8m-1.3,33.8l2.6,0m-2.6,-33.8l2.6,0m81.5,37.5l0,-32.6M430,202.4l2.5,0M430,169.8l2.5,0" class="g6_8" />
<path d="M265.7,184.3l0,0" class="g7_8" />
<path d="M348.5,181.8l0,0" class="g7_8" />
<path d="M431.3,186.1l0,0" class="g7_8" />
<path d="M182.9,128.1l0,182.7l269,0l0,-182.7l-269,0Z" class="g2_8" />
<path d="M521.1,310.8l269,0" class="g1_8" />
<path d="M521.1,310.8l2.6,0m266.4,0l-2.7,0" class="g2_8" />
<path d="M521.1,280.3l269,0" class="g1_8" />
<path d="M521.1,280.3l2.6,0m266.4,0l-2.7,0" class="g2_8" />
<path d="M521.1,249.9l269,0" class="g1_8" />
<path d="M521.1,249.9l2.6,0m266.4,0l-2.7,0" class="g2_8" />
<path d="M521.1,219.4l269,0" class="g1_8" />
<path d="M521.1,219.4l2.6,0m266.4,0l-2.7,0" class="g2_8" />
<path d="M521.1,189l269,0" class="g1_8" />
<path d="M521.1,189l2.6,0m266.4,0l-2.7,0" class="g2_8" />
<path d="M521.1,158.6l269,0" class="g1_8" />
<path d="M521.1,158.6l2.6,0m266.4,0l-2.7,0" class="g2_8" />
<path d="M521.1,128.1l269,0" class="g1_8" />
<path d="M521.1,128.1l2.6,0m266.4,0l-2.7,0" class="g2_8" />
<path d="M562.5,310.8l0,-2.6" class="g2_8" />
<path d="M645.2,310.8l0,-2.6" class="g2_8" />
<path d="M728,310.8l0,-2.6" class="g2_8" />
<path d="M521.1,128.1l0,182.7l269,0l0,-182.7l-269,0Z" class="g2_8" />
<path d="M735.3,132.8l0,4.2l22.5,0l0,-4.2l-22.5,0Z" class="g3_8" />
<g clip-path="url(#c8_8)">
<path d="M735.3,137l22.5,0l0,-4.2l-22.5,0Zm11.2,14.1L730.3,134.9m18.6,13.9L732.7,132.5m18.5,13.9L735,130.2m18.6,13.9L737.4,127.8m18.5,13.9L739.7,125.5m18.6,13.9L742.1,123.2M760.6,137L744.4,120.8M763,134.7L746.8,118.5" class="g4_8" />
</g>
<path d="M735.3,132.8l0,4.2l22.5,0l0,-4.2l-22.5,0Z" class="g5_8" />
<path d="M552.1,200.9l0,109.9l20.7,0l0,-109.9l-20.7,0Z" class="g3_8" />
<g clip-path="url(#c9_8)">
<path d="M552.1,310.8l20.7,0l0,-109.9l-20.7,0Zm10.4,24.1L483.4,255.8m81.4,76.8L485.7,253.5m81.5,76.7L488.1,251.1m81.4,76.8L490.4,248.8m81.5,76.7L492.8,246.4m81.4,76.8L495.1,244.1m81.5,76.7L497.5,241.7m81.4,76.8L499.8,239.4m81.5,76.7L502.2,237m81.4,76.8L504.5,234.7M586,311.4L506.9,232.3m81.4,76.8L509.2,230m81.5,76.7L511.6,227.6M593,304.4L513.9,225.3M595.4,302L516.3,222.9m81.4,76.8L518.6,220.6m81.5,76.7L521,218.2M602.4,295L523.3,215.9m81.5,76.7L525.7,213.5m81.4,76.8L528,211.2m81.4,76.7l-79,-79.1m81.4,76.8L532.7,206.5m81.4,76.7l-79,-79m81.4,76.7L537.4,201.8m81.4,76.7l-79.1,-79m81.5,76.7L542.1,197.1m81.4,76.8L544.4,194.8m81.5,76.7L546.8,192.4m81.4,76.8L549.1,190.1m81.5,76.7L551.5,187.7m81.4,76.8L553.8,185.4m81.5,76.7L556.2,183m81.4,76.8L558.5,180.7M640,257.4L560.9,178.3m81.4,76.8L563.2,176" class="g4_8" />
</g>
<path d="M552.1,200.9l0,109.9l20.7,0l0,-109.9l-20.7,0Z" class="g5_8" />
<path d="M634.9,192.3l0,118.5l20.7,0l0,-118.5l-20.7,0Z" class="g3_8" />
<g clip-path="url(#c10_8)">
<path d="M634.9,310.8l20.7,0l0,-118.5l-20.7,0Zm10.4,25.8L560.2,251.5m87.4,82.7l-85,-85M650,331.9L564.9,246.8m87.4,82.7l-85,-85m87.3,82.7l-85,-85.1M657,324.8l-85,-85m87.3,82.7l-85,-85.1m87.4,82.7l-85,-85M664,317.8l-85,-85m87.4,82.6l-85.1,-85m87.4,82.7l-85,-85m87.4,82.6L586,225.7m87.4,82.7l-85,-85m87.4,82.7L590.7,221m87.4,82.7l-85,-85m87.4,82.7L595.4,216.3M682.8,299l-85,-85m87.4,82.7L600.1,211.6m87.4,82.7l-85,-85M689.9,292L604.8,206.9m87.4,82.7l-85,-85m87.4,82.7L609.5,202.2m87.4,82.7l-85,-85m87.4,82.7L614.2,197.5m87.4,82.7l-85,-85M704,277.9L618.9,192.8m87.4,82.7l-85,-85m87.4,82.7L623.6,188.1M711,270.8l-85,-85m87.4,82.7L628.3,183.4m87.4,82.7l-85,-85M718,263.8L633,178.7m87.4,82.7l-85,-85m87.3,82.7L637.7,174m87.4,82.7l-85,-85m87.3,82.7l-85,-85M729.8,252L644.7,167m87.4,82.7l-85,-85" class="g4_8" />
</g>
<path d="M634.9,192.3l0,118.5l20.7,0l0,-118.5l-20.7,0Z" class="g5_8" />
<path d="M717.6,196.6l0,114.2l20.8,0l0,-114.2l-20.8,0Z" class="g3_8" />
<g clip-path="url(#c11_8)">
<path d="M717.6,310.8l20.8,0l0,-114.2l-20.8,0ZM728,335.7l-82.1,-82m84.5,79.7L648.3,251.3M732.7,331L650.6,249m84.5,79.7L653,246.6m84.4,79.8L655.3,244.3M739.7,324l-82,-82.1m84.4,79.8L660,239.6m84.4,79.7l-82,-82.1M746.8,317L664.7,234.9m84.4,79.7l-82,-82.1m84.4,79.8L669.4,230.2m84.4,79.7l-82,-82.1m84.4,79.8L674.1,225.5m84.4,79.7l-82,-82.1m84.4,79.8L678.8,220.8m84.4,79.7l-82,-82m84.4,79.7L683.5,216.1m84.4,79.7l-82,-82m84.4,79.7L688.2,211.4m84.4,79.7l-82,-82M775,288.8L692.9,206.7m84.4,79.7l-82.1,-82m84.5,79.7L697.6,202M782,281.7l-82.1,-82m84.5,79.7L702.3,197.3M786.7,277L704.6,195m84.5,79.7L707,192.6m84.4,79.7l-82.1,-82M793.8,270L711.7,187.9m84.4,79.7L714,185.6m84.5,79.7L716.4,183.2M800.8,263L718.7,180.9m84.4,79.7l-82,-82.1m84.4,79.8L723.4,176.2m84.4,79.7l-82,-82.1m84.4,79.8L728.1,171.5" class="g4_8" />
</g>
<path d="M717.6,196.6l0,114.2l20.7,0l0,-114.2l-20.7,0Z" class="g5_8" />
<path d="M562.5,245.6l0,-89.5m-1.3,89.5l2.6,0m-2.6,-89.5l2.6,0m81.4,81l0,-89.5m-1.3,89.5l2.6,0m-2.6,-89.5l2.6,0m81.5,93l0,-88m-1.3,88l2.6,0m-2.6,-88l2.6,0" class="g6_8" />
<path d="M562.5,200.9l0,0" class="g7_8" />
<path d="M645.2,192.3l0,0" class="g7_8" />
<path d="M728,196.6l0,0" class="g7_8" />
<path d="M735.3,141.1l0,4.2l22.5,0l0,-4.2l-22.5,0Z" class="g3_8" />
<g clip-path="url(#c12_8)">
<path d="M735.3,145.3l22.5,0l0,-4.2l-22.5,0Zm-5,-2.1L746.5,127m-13.8,18.5l16.2,-16.2M735,147.9l16.2,-16.2m-13.8,18.5L753.6,134m-13.9,18.6l16.2,-16.2m-13.8,18.5l16.2,-16.2m-13.9,18.6l16.2,-16.2m-13.8,18.5L763,143.4" class="g8_8" />
</g>
<path d="M735.3,141.1l0,4.2l22.5,0l0,-4.2l-22.5,0Z" class="g9_8" />
<path d="M572.8,178.8l0,132l20.8,0l0,-132l-20.8,0Z" class="g3_8" />
<g clip-path="url(#c13_8)">
<path d="M572.8,310.8l20.8,0l0,-132l-20.8,0Zm-84.1,-66l94.5,-94.5M491,247.1l94.5,-94.5m-92.1,96.9L587.9,155m-92.2,96.8l94.5,-94.5m-92.1,96.9l94.5,-94.5m-92.2,96.8L594.9,162m-92.1,96.9l94.5,-94.5m-92.2,96.8l94.5,-94.5m-92.1,96.9L602,169.1m-92.2,96.8l94.5,-94.5m-92.1,96.9l94.5,-94.5m-92.2,96.8L609,176.1m-92.1,96.8l94.5,-94.4m-92.2,96.8l94.5,-94.5m-92.1,96.8l94.5,-94.4M523.9,280l94.5,-94.5m-92.1,96.8l94.4,-94.4m-92.1,96.8l94.5,-94.5M531,287l94.4,-94.4m-92.1,96.8l94.5,-94.5m-92.1,96.8l94.4,-94.5M538,294.1l94.5,-94.5m-92.1,96.8l94.4,-94.5m-92.1,96.9l94.5,-94.5M545,301.1l94.5,-94.5m-92.1,96.9L641.9,209m-92.2,96.8l94.5,-94.5m-92.1,96.9l94.5,-94.5m-92.2,96.8L648.9,216m-92.1,96.9l94.5,-94.5m-92.2,96.8l94.5,-94.5m-92.1,96.9L656,223.1m-92.2,96.8l94.5,-94.5m-92.1,96.9l94.5,-94.5m-92.2,96.8L663,230.1M570.9,327l94.5,-94.5m-92.2,96.8l94.5,-94.5m-92.1,96.9l94.5,-94.5M577.9,334l94.5,-94.5m-92.1,96.8l94.5,-94.4m-92.2,96.8l94.5,-94.5M585,341l94.5,-94.4" class="g8_8" />
</g>
<path d="M572.8,178.8l0,132l20.7,0l0,-132l-20.7,0Z" class="g9_8" />
<path d="M655.6,190.6l0,120.2l20.7,0l0,-120.2l-20.7,0Z" class="g3_8" />
<g clip-path="url(#c14_8)">
<path d="M655.6,310.8l20.7,0l0,-120.2l-20.7,0ZM579.7,250.7l86.2,-86.2m-83.8,88.6l86.2,-86.2m-83.9,88.5l86.2,-86.2m-83.8,88.6L673,171.6m-83.9,88.5l86.2,-86.2m-83.8,88.5l86.2,-86.2m-83.9,88.6L680,178.6m-83.8,88.5l86.2,-86.2m-83.9,88.6l86.2,-86.2m-83.8,88.5l86.2,-86.2m-83.9,88.6L689.4,188m-83.8,88.5l86.2,-86.2m-83.9,88.6l86.2,-86.2m-83.8,88.5L696.5,195m-83.9,88.6l86.2,-86.2M615,285.9l86.2,-86.2m-83.9,88.6l86.2,-86.2m-83.9,88.5l86.2,-86.2M622,293l86.2,-86.2m-83.9,88.5l86.2,-86.2m-83.8,88.6l86.2,-86.2M629,300l86.2,-86.2m-83.8,88.6l86.2,-86.2m-83.9,88.5l86.2,-86.2m-83.8,88.6l86.2,-86.2m-83.9,88.5l86.2,-86.2m-83.8,88.6L727,225.6m-83.9,88.5l86.2,-86.2m-83.8,88.6l86.2,-86.2m-83.9,88.5L734,232.6m-83.8,88.5L736.4,235m-83.9,88.5l86.2,-86.2m-83.8,88.5l86.2,-86.2m-83.9,88.6L743.4,242m-83.8,88.5l86.2,-86.2m-83.9,88.6l86.2,-86.2m-83.8,88.5L750.5,249m-83.9,88.6l86.2,-86.2" class="g8_8" />
</g>
<path d="M655.6,190.7l0,120.1l20.6,0l0,-120.1l-20.6,0Z" class="g9_8" />
<path d="M738.3,184.7l0,126.1l20.8,0l0,-126.1l-20.8,0Z" class="g3_8" />
<g clip-path="url(#c15_8)">
<path d="M738.3,310.8l20.8,0l0,-126.1l-20.8,0ZM658.4,247.7l90.3,-90.3m-88,92.7L751,159.7m-87.9,92.7l90.3,-90.3m-88,92.7l90.3,-90.4m-87.9,92.7l90.3,-90.3m-88,92.7l90.3,-90.4m-87.9,92.7l90.3,-90.3m-88,92.7l90.3,-90.4m-88,92.7l90.4,-90.3m-88,92.7l90.3,-90.4m-88,92.7l90.4,-90.3m-88,92.7l90.3,-90.4m-88,92.7l90.4,-90.3m-88,92.7l90.3,-90.4m-88,92.7l90.4,-90.3m-88,92.7l90.3,-90.4m-88,92.7L786.3,195m-88,92.7l90.3,-90.4m-88,92.7L791,199.7m-88,92.7L793.3,202m-88,92.7l90.4,-90.3m-88,92.6L798,206.7m-88,92.7l90.4,-90.3m-88,92.6l90.3,-90.3m-88,92.7l90.4,-90.3m-88,92.6l90.3,-90.3m-88,92.7l90.4,-90.3m-88,92.6l90.3,-90.3m-88,92.7l90.3,-90.4m-87.9,92.7l90.3,-90.3m-88,92.7l90.3,-90.4m-87.9,92.7l90.3,-90.3m-88,92.7l90.3,-90.4m-87.9,92.7l90.3,-90.3m-88,92.7l90.3,-90.4m-88,92.7l90.4,-90.3m-88,92.7l90.3,-90.4m-88,92.7l90.4,-90.3m-88,92.7l90.3,-90.4m-88,92.7L840.3,249" class="g8_8" />
</g>
<path d="M738.3,184.7l0,126.1l20.7,0l0,-126.1l-20.7,0Z" class="g9_8" />
<path d="M583.1,185.5l0,-13.4m-1.2,13.4l2.5,0m-2.5,-13.4l2.5,0M665.9,201l0,-20.7M664.6,201l2.6,0m-2.6,-20.7l2.6,0m81.5,9.6l0,-10.3m-1.3,10.3l2.6,0m-2.6,-10.3l2.6,0" class="g6_8" />
<path d="M583.1,178.8l0,0" class="g7_8" />
<path d="M665.9,190.7l0,0" class="g7_8" />
<path d="M748.7,184.7l0,0" class="g7_8" />
<path d="M735.3,149.4l0,4.2l22.5,0l0,-4.2l-22.5,0Z" class="g10_8" />
<path d="M735.3,149.4l0,4.2l22.5,0l0,-4.2l-22.5,0Z" class="g11_8" />
<path d="M593.5,184.4l0,126.4l20.7,0l0,-126.4l-20.7,0Z" class="g10_8" />
<path d="M593.5,184.5l0,126.3l20.7,0l0,-126.3l-20.7,0Z" class="g11_8" />
<path d="M676.2,190.9l0,119.9l20.8,0l0,-119.9l-20.8,0Z" class="g10_8" />
<path d="M676.2,191l0,119.8l20.8,0L697,191l-20.8,0Z" class="g11_8" />
<path d="M759,187.7l0,123.1l20.8,0l0,-123.1l-20.8,0Z" class="g10_8" />
<path d="M759,187.8l0,123l20.7,0l0,-123l-20.7,0Z" class="g11_8" />
<path d="M603.9,197.7l0,-26.5m-1.3,26.5l2.5,0m-2.5,-26.5l2.5,0m81.5,38.7l0,-37.8m-1.3,37.8l2.6,0m-2.6,-37.8l2.6,0m81.5,30.5l0,-29.6m-1.3,29.6l2.6,0M768.1,173l2.6,0" class="g6_8" />
<path d="M603.9,184.5l0,0" class="g7_8" />
<path d="M686.6,191l0,0" class="g7_8" />
<path d="M769.4,187.8l0,0" class="g7_8" />
<path d="M521.1,128.1l0,182.7l269,0l0,-182.7l-269,0Z" class="g2_8" />
<path d="M182.9,626.2l269,0" class="g1_8" />
<path d="M182.9,626.2l2.7,0m266.3,0l-2.6,0" class="g2_8" />
<path d="M182.9,600.1l269,0" class="g1_8" />
<path d="M182.9,600.1l2.7,0m266.3,0l-2.6,0" class="g2_8" />
<path d="M182.9,574.1l269,0" class="g1_8" />
<path d="M182.9,574.1l2.7,0m266.3,0l-2.6,0" class="g2_8" />
<path d="M182.9,548l269,0" class="g1_8" />
<path d="M182.9,548l2.7,0m266.3,0l-2.6,0" class="g2_8" />
<path d="M182.9,521.9l269,0" class="g1_8" />
<path d="M182.9,521.9l2.7,0m266.3,0l-2.6,0" class="g2_8" />
<path d="M182.9,495.8l269,0" class="g1_8" />
<path d="M182.9,495.8l2.7,0m266.3,0l-2.6,0" class="g2_8" />
<path d="M182.9,469.7l5,0m236.8,0l27.2,0" class="g1_8" />
<path d="M182.9,469.7l2.7,0m266.3,0l-2.6,0" class="g2_8" />
<path d="M182.9,443.6l269,0" class="g1_8" />
<path d="M182.9,443.6l2.7,0m266.3,0l-2.6,0" class="g2_8" />
<path d="M224.3,626.2l0,-2.6" class="g2_8" />
<path d="M307.1,626.2l0,-2.6" class="g2_8" />
<path d="M389.9,626.2l0,-2.6" class="g2_8" />
<path d="M182.9,443.6l0,182.6l269,0l0,-182.6l-269,0Z" class="g2_8" />
<path d="M397.1,448.3l0,4.1l22.6,0l0,-4.1l-22.6,0Z" class="g3_8" />
<g clip-path="url(#c16_8)">
<path d="M397.1,452.4l22.6,0l0,-4.1l-22.6,0Zm11.3,14.2L392.2,450.4m18.6,13.8L394.5,448m18.6,13.9L396.9,445.7m18.6,13.8L399.2,443.3m18.6,13.9L401.6,441m18.5,13.8L403.9,438.6m18.6,13.9L406.3,436.3m18.5,13.8L408.6,433.9" class="g4_8" />
</g>
<path d="M397.1,448.3l0,4.1l22.6,0l0,-4.1l-22.6,0Z" class="g5_8" />
<path d="M214,501.8l0,124.4l20.7,0l0,-124.4l-20.7,0Z" class="g3_8" />
<g clip-path="url(#c17_8)">
<path d="M214,626.2l20.7,0l0,-124.4l-20.7,0Zm10.4,27L135.1,564m91.6,86.9L137.5,561.6M229,648.5L139.8,559.3m91.6,86.9L142.2,557m91.5,86.8L144.5,554.6m91.6,86.9L146.9,552.3m91.5,86.8L149.2,549.9m91.6,86.9L151.6,547.6m91.5,86.8L153.9,545.2m91.6,86.9L156.2,542.9m91.6,86.8L158.6,540.5m91.6,86.9L160.9,538.2m91.6,86.9L163.3,535.8m91.6,86.9L165.6,533.5m91.6,86.9L168,531.1M259.6,618L170.3,528.8m91.6,86.9L172.7,526.4m91.6,86.9L175,524.1M266.6,611L177.4,521.7M269,608.6L179.7,519.4m91.6,86.9L182.1,517m91.6,86.9L184.4,514.7M276,601.6L186.8,512.3m91.6,86.9L189.1,510m91.6,86.9L191.5,507.6m91.6,86.9L193.8,505.3m91.6,86.9L196.2,502.9m91.6,86.9L198.5,500.6m91.6,86.9L200.9,498.2m91.5,86.9L203.2,495.9m91.6,86.9L205.6,493.6m91.5,86.8L207.9,491.2m91.6,86.9L210.3,488.9m91.5,86.8L212.6,486.5m91.6,86.9L215,484.2M306.5,571L217.3,481.8m91.6,86.9L219.6,479.5m91.6,86.8L222,477.1M313.6,564L224.3,474.8m91.6,86.9L226.7,472.4" class="g4_8" />
</g>
<path d="M214,501.8l0,124.4l20.7,0l0,-124.4l-20.7,0Z" class="g5_8" />
<path d="M296.8,516.6l0,109.6l20.7,0l0,-109.6l-20.7,0Z" class="g3_8" />
<g clip-path="url(#c18_8)">
<path d="M296.8,626.2l20.7,0l0,-109.6l-20.7,0Zm10.3,24.1L228.2,571.4M309.5,648L230.6,569.1m81.2,76.5L232.9,566.7m81.3,76.6L235.3,564.4m81.2,76.5L237.6,562m81.3,76.6L240,559.7m81.2,76.5L242.3,557.3m81.3,76.6L244.7,555m81.2,76.5L247,552.6m81.3,76.6L249.4,550.3m81.2,76.5L251.7,547.9M333,624.5L254.1,545.6m81.2,76.5L256.4,543.2m81.2,76.6L258.8,540.9M340,617.4L261.1,538.6m81.2,76.5L263.5,536.2m81.2,76.5L265.8,533.9M347,610.4L268.2,531.5M349.4,608L270.5,529.2m81.2,76.5L272.8,526.8m81.3,76.6L275.2,524.5M356.4,601L277.5,522.1m81.3,76.6L279.9,519.8m81.2,76.5L282.2,517.4M363.5,594L284.6,515.1m81.2,76.5L286.9,512.7m81.3,76.6L289.3,510.4m81.2,76.5L291.6,508m81.3,76.6L294,505.7m81.2,76.5L296.3,503.3m81.3,76.6L298.7,501m81.2,76.5L301,498.6m81.3,76.6L303.4,496.3m81.2,76.5L305.7,493.9M387,570.5L308.1,491.6" class="g4_8" />
</g>
<path d="M296.8,516.7l0,109.5l20.6,0l0,-109.5l-20.6,0Z" class="g5_8" />
<path d="M379.5,500.7l0,125.5l20.7,0l0,-125.5l-20.7,0Z" class="g3_8" />
<g clip-path="url(#c19_8)">
<path d="M379.5,626.2l20.7,0l0,-125.5l-20.7,0Zm10.4,27.2l-90,-89.9m92.3,87.6l-89.9,-90m92.3,87.6l-90,-89.9m92.3,87.6L307,556.4M399.3,644l-90,-89.9m92.3,87.6l-90,-90M404,639.4l-90,-90M406.3,637l-90,-90m92.4,87.7l-90,-90M411,632.3l-90,-90M413.4,630l-90,-90m92.3,87.6l-90,-90M418,625.3l-89.9,-90m92.3,87.6L330.4,533m92.3,87.6l-89.9,-90m92.3,87.6l-90,-89.9m92.3,87.6l-89.9,-90m92.3,87.6l-90,-89.9m92.3,87.6l-89.9,-90m92.3,87.6l-90,-89.9m92.3,87.6l-89.9,-90m92.3,87.6l-90,-89.9m92.3,87.6l-89.9,-90m92.3,87.6l-90,-89.9m92.3,87.6l-89.9,-90m92.3,87.6l-90,-89.9m92.3,87.6L361,502.4M453.3,590l-90,-89.9m92.3,87.6l-89.9,-90M458,585.3L368,495.4M460.3,583L370.4,493m92.3,87.6l-90,-89.9M465,578.3l-90,-90M467.4,576l-90,-90m92.3,87.6l-90,-90m92.4,87.7l-90,-90m92.3,87.6l-90,-90m92.4,87.7l-90,-90m92.3,87.6l-90,-90m92.3,87.7l-89.9,-90" class="g4_8" />
</g>
<path d="M379.5,500.8l0,125.4l20.7,0l0,-125.4l-20.7,0Z" class="g5_8" />
<path d="M224.3,516.4l0,-29.2M223,516.4l2.6,0M223,487.2l2.6,0m81.5,81.9l0,-104.9m-1.3,104.9l2.6,0M305.8,464.2l2.6,0m81.5,51.4l0,-29.7m-1.3,29.7l2.6,0m-2.6,-29.7l2.6,0" class="g6_8" />
<path d="M224.3,501.8l0,0" class="g7_8" />
<path d="M307.1,516.7l0,0" class="g7_8" />
<path d="M389.9,500.8l0,0" class="g7_8" />
<path d="M397.1,456.6l0,4.1l22.6,0l0,-4.1l-22.6,0Z" class="g3_8" />
<g clip-path="url(#c20_8)">
<path d="M397.1,460.7l22.6,0l0,-4.1l-22.6,0Zm-4.9,-2l16.2,-16.2M394.5,461l16.3,-16.2m-13.9,18.6l16.2,-16.2m-13.9,18.5l16.3,-16.2m-13.9,18.6l16.2,-16.2m-13.9,18.5l16.2,-16.2m-13.8,18.6l16.2,-16.3m-13.9,18.6l16.2,-16.2" class="g8_8" />
</g>
<path d="M397.1,456.6l0,4.1l22.6,0l0,-4.1l-22.6,0Z" class="g9_8" />
<path d="M234.7,520.3l0,105.9l20.7,0l0,-105.9l-20.7,0Z" class="g3_8" />
<g clip-path="url(#c21_8)">
<path d="M234.7,626.2l20.7,0l0,-105.9l-20.7,0Zm-66,-52.9L245,496.9m-74,78.7l76.4,-76.4m-74,78.7l76.3,-76.3m-74,78.7l76.4,-76.4m-74,78.7l76.3,-76.3m-74,78.7l76.4,-76.4m-74,78.7L259.1,511m-74,78.7l76.4,-76.4m-74,78.7l76.3,-76.3m-74,78.7L266.2,518m-74,78.7l76.3,-76.3m-74,78.7l76.4,-76.4m-74,78.7l76.3,-76.3m-74,78.7l76.4,-76.4m-74,78.7l76.3,-76.3m-74,78.7l76.4,-76.4m-74,78.7l76.3,-76.3m-74,78.7L285,536.8m-74,78.7l76.3,-76.3m-74,78.7l76.4,-76.4m-74.1,78.7L292,543.9m-74,78.7l76.4,-76.4m-74.1,78.7l76.4,-76.3m-74,78.7l76.4,-76.4M225,629.6l76.4,-76.4m-74,78.8l76.3,-76.4m-74,78.7l76.4,-76.4m-74,78.8l76.3,-76.4m-74,78.7l76.4,-76.4m-74,78.7L313.1,565m-74,78.7l76.4,-76.4m-74,78.7l76.3,-76.3m-74,78.7L320.2,572m-74,78.7l76.3,-76.3" class="g8_8" />
</g>
<path d="M234.7,520.3l0,105.9l20.7,0l0,-105.9l-20.7,0Z" class="g9_8" />
<path d="M317.4,531.8l0,94.4l20.8,0l0,-94.4l-20.8,0Z" class="g3_8" />
<g clip-path="url(#c22_8)">
<path d="M317.4,626.2l20.8,0l0,-94.4l-20.8,0ZM259.4,579l68.4,-68.4m-66,70.7L330.1,513m-66,70.7l68.4,-68.4M266.4,586l68.4,-68.3m-66,70.7L337.2,520m-66.1,70.7l68.4,-68.4m-66,70.8l68.4,-68.4m-66.1,70.7L344.2,527m-66,70.8l68.4,-68.4m-66.1,70.7l68.4,-68.4m-66,70.8l68.4,-68.4m-66.1,70.7l68.4,-68.4m-66,70.8L356,538.8m-66.1,70.7l68.4,-68.4m-66,70.8l68.4,-68.4m-66.1,70.7L363,545.8m-66,70.8l68.4,-68.4m-66.1,70.7l68.4,-68.4m-66,70.8l68.4,-68.4M304,623.6l68.4,-68.4m-66,70.8l68.4,-68.4m-66.1,70.7l68.4,-68.4m-66,70.8l68.4,-68.4M313.4,633l68.4,-68.4m-66,70.8L384.1,567m-66,70.7l68.4,-68.4m-66,70.8l68.3,-68.4m-66,70.7L391.2,574m-66,70.7l68.3,-68.3m-66,70.7l68.4,-68.4m-66.1,70.7l68.4,-68.3" class="g8_8" />
</g>
<path d="M317.4,531.8l0,94.4l20.7,0l0,-94.4l-20.7,0Z" class="g9_8" />
<path d="M400.2,522.6l0,103.6l20.7,0l0,-103.6l-20.7,0Z" class="g3_8" />
<g clip-path="url(#c23_8)">
<path d="M400.2,626.2l20.7,0l0,-103.6l-20.7,0ZM335.9,574.4l74.7,-74.7m-72.4,77.1l74.7,-74.7m-72.4,77l74.8,-74.7m-72.4,77.1l74.7,-74.7m-72.4,77L420,509.1m-72.4,77.1l74.7,-74.7m-72.4,77l74.8,-74.7m-72.4,77.1L427,516.2m-72.4,77l74.7,-74.7M357,595.6l74.7,-74.7m-72.4,77L434,523.2m-72.3,77.1l74.7,-74.7m-72.4,77l74.7,-74.7M366.4,605l74.7,-74.8m-72.4,77.1l74.7,-74.7m-72.3,77.1l74.7,-74.8M373.4,612l74.7,-74.7m-72.3,77.1l74.7,-74.8m-72.4,77.1L452.8,542m-72.3,77l74.7,-74.7m-72.4,77.1l74.7,-74.7m-72.3,77L459.9,549m-72.4,77.1l74.7,-74.7m-72.3,77l74.7,-74.7m-72.4,77.1l74.7,-74.7m-72.3,77l74.7,-74.7m-72.4,77.1l74.7,-74.7m-72.3,77L474,563.1m-72.4,77.1l74.7,-74.7m-72.4,77l74.8,-74.7m-72.4,77.1L481,570.2m-72.4,77l74.8,-74.7M411,649.6l74.7,-74.7" class="g8_8" />
</g>
<path d="M400.2,522.7l0,103.5l20.7,0l0,-103.5l-20.7,0Z" class="g9_8" />
<path d="M245,544l0,-47.4M243.7,544l2.6,0m-2.6,-47.4l2.6,0m81.5,72l0,-73.6m-1.3,73.6l2.6,0M326.5,495l2.6,0m81.4,49.3l0,-43.3m-1.2,43.3l2.5,0M409.3,501l2.5,0" class="g6_8" />
<path d="M245,520.3l0,0" class="g7_8" />
<path d="M327.8,531.8l0,0" class="g7_8" />
<path d="M410.5,522.7l0,0" class="g7_8" />
<path d="M397.1,464.9l0,4.1l22.6,0l0,-4.1l-22.6,0Z" class="g10_8" />
<path d="M397.1,464.9l0,4.1l22.6,0l0,-4.1l-22.6,0Z" class="g11_8" />
<path d="M255.4,518.4l0,107.8l20.7,0l0,-107.8l-20.7,0Z" class="g10_8" />
<path d="M255.4,518.5l0,107.7l20.7,0l0,-107.7l-20.7,0Z" class="g11_8" />
<path d="M338.1,527l0,99.2l20.8,0l0,-99.2l-20.8,0Z" class="g10_8" />
<path d="M338.1,527.1l0,99.1l20.7,0l0,-99.1l-20.7,0Z" class="g11_8" />
<path d="M420.9,519.2l0,107l20.7,0l0,-107l-20.7,0Z" class="g10_8" />
<path d="M420.9,519.3l0,106.9l20.7,0l0,-106.9l-20.7,0Z" class="g11_8" />
<path d="M265.7,542.5l0,-48m-1.3,48l2.6,0m-2.6,-48l2.6,0m81.5,74.9l0,-84.6m-1.3,84.6l2.6,0m-2.6,-84.6l2.6,0m81.5,57.7l0,-46.5M430,542.5l2.5,0M430,496l2.5,0" class="g6_8" />
<path d="M265.7,518.5l0,0" class="g7_8" />
<path d="M348.5,527.1l0,0" class="g7_8" />
<path d="M431.3,519.3l0,0" class="g7_8" />
<path d="M182.9,443.6l0,182.6l269,0l0,-182.6l-269,0Z" class="g2_8" />
<path d="M521.1,626.2l269,0" class="g1_8" />
<path d="M521.1,626.2l2.6,0m266.4,0l-2.7,0" class="g2_8" />
<path d="M521.1,600.1l269,0" class="g1_8" />
<path d="M521.1,600.1l2.6,0m266.4,0l-2.7,0" class="g2_8" />
<path d="M521.1,574.1l269,0" class="g1_8" />
<path d="M521.1,574.1l2.6,0m266.4,0l-2.7,0" class="g2_8" />
<path d="M521.1,548l269,0" class="g1_8" />
<path d="M521.1,548l2.6,0m266.4,0l-2.7,0" class="g2_8" />
<path d="M521.1,521.9l269,0" class="g1_8" />
<path d="M521.1,521.9l2.6,0m266.4,0l-2.7,0" class="g2_8" />
<path d="M521.1,495.8l269,0" class="g1_8" />
<path d="M521.1,495.8l2.6,0m266.4,0l-2.7,0" class="g2_8" />
<path d="M521.1,469.7l5,0m236.7,0l27.3,0" class="g1_8" />
<path d="M521.1,469.7l2.6,0m266.4,0l-2.7,0" class="g2_8" />
<path d="M521.1,443.6l269,0" class="g1_8" />
<path d="M521.1,443.6l2.6,0m266.4,0l-2.7,0" class="g2_8" />
<path d="M562.5,626.2l0,-2.6" class="g2_8" />
<path d="M645.2,626.2l0,-2.6" class="g2_8" />
<path d="M728,626.2l0,-2.6" class="g2_8" />
<path d="M521.1,443.6l0,182.6l269,0l0,-182.6l-269,0Z" class="g2_8" />
<path d="M735.3,448.3l0,4.1l22.5,0l0,-4.1l-22.5,0Z" class="g3_8" />
<g clip-path="url(#c24_8)">
<path d="M735.3,452.4l22.5,0l0,-4.1l-22.5,0Zm11.2,14.2L730.3,450.4m18.6,13.8L732.7,448m18.5,13.9L735,445.7m18.6,13.8L737.4,443.3m18.5,13.9L739.7,441m18.6,13.8L742.1,438.6m18.5,13.9L744.4,436.3M763,450.1L746.8,433.9" class="g4_8" />
</g>
<path d="M735.3,448.3l0,4.1l22.5,0l0,-4.1l-22.5,0Z" class="g5_8" />
<path d="M552.1,491.3l0,134.9l20.7,0l0,-134.9l-20.7,0Z" class="g3_8" />
<g clip-path="url(#c25_8)">
<path d="M552.1,626.2l20.7,0l0,-134.9l-20.7,0Zm10.4,29.1L465.9,558.8M564.8,653L468.3,556.4m98.9,94.2L470.6,554.1m98.9,94.2L473,551.7m98.9,94.2L475.3,549.4m98.9,94.2L477.7,547m98.9,94.2L480,544.7m98.9,94.2L482.4,542.3m98.9,94.2L484.7,540m98.9,94.2L487.1,537.6M586,631.8L489.4,535.3m98.9,94.2L491.8,532.9m98.9,94.2L494.1,530.6M593,624.8L496.5,528.2m98.9,94.2L498.8,525.9m98.9,94.2L501.2,523.5m98.9,94.2L503.5,521.2m98.9,94.2L505.9,518.8M604.8,613L508.2,516.5m98.9,94.2L510.6,514.2m98.8,94.1L512.9,511.8M611.8,606L515.3,509.5m98.8,94.1L517.6,507.1m98.9,94.2L520,504.8m98.8,94.1L522.3,502.4m98.9,94.2L524.6,500.1m98.9,94.2L527,497.7m98.9,94.2L529.3,495.4m98.9,94.2L531.7,493m98.9,94.2L534,490.7m98.9,94.2L536.4,488.3m98.9,94.2L538.7,486m98.9,94.2L541.1,483.6M640,577.8L543.4,481.3m98.9,94.2L545.8,478.9m98.9,94.2L548.1,476.6M647,570.8L550.5,474.2m98.9,94.2L552.8,471.9m98.9,94.2L555.2,469.5m98.9,94.2L557.5,467.2m98.9,94.2L559.9,464.8M658.8,559L562.2,462.5m98.9,94.2L564.6,460.1" class="g4_8" />
</g>
<path d="M552.1,491.3l0,134.9l20.7,0l0,-134.9l-20.7,0Z" class="g5_8" />
<path d="M634.9,504.4l0,121.8l20.7,0l0,-121.8l-20.7,0Z" class="g3_8" />
<g clip-path="url(#c26_8)">
<path d="M634.9,626.2l20.7,0l0,-121.8l-20.7,0Zm10.4,26.5L557.8,565.3m89.8,85.1L560.2,563M650,648L562.5,560.6m89.8,85.1L564.9,558.3m89.7,85L567.2,555.9M657,641L569.6,553.6m89.7,85L571.9,551.2m89.8,85.1L574.3,548.9m89.7,85L576.6,546.5m89.8,85.1L579,544.2m89.7,85L581.3,541.8m89.8,85.1L583.7,539.5m89.7,85L586,537.1m89.8,85.1L588.4,534.8m89.7,85L590.7,532.4m89.8,85.1L593.1,530.1m89.7,85L595.4,527.7m89.8,85.1L597.8,525.4m89.7,85L600.1,523m89.8,85.1L602.5,520.7m89.7,85.1L604.8,518.3m89.8,85.1L607.2,516m89.7,85.1L609.5,513.6m89.8,85.1L611.9,511.3m89.7,85.1L614.2,508.9M704,594L616.5,506.6m89.8,85.1L618.9,504.3m89.8,85L621.2,501.9M711,587L623.6,499.6m89.8,85L625.9,497.2m89.8,85.1L628.3,494.9m89.7,85L630.6,492.5m89.8,85.1L633,490.2m89.7,85L635.3,487.8m89.8,85.1L637.7,485.5m89.7,85L640,483.1m89.8,85.1L642.4,480.8m89.7,85L644.7,478.4m89.8,85.1L647.1,476.1" class="g4_8" />
</g>
<path d="M634.9,504.4l0,121.8l20.7,0l0,-121.8l-20.7,0Z" class="g5_8" />
<path d="M717.6,499.1l0,127.1l20.8,0l0,-127.1l-20.8,0Z" class="g3_8" />
<g clip-path="url(#c27_8)">
<path d="M717.6,626.2l20.8,0l0,-127.1l-20.8,0ZM728,653.8L636.9,562.7m93.5,88.7L639.3,560.3m93.4,88.8L641.6,558m93.5,88.7L644,555.6m93.4,88.8L646.3,553.3M739.7,642l-91,-91.1m93.4,88.8L651,548.6m93.4,88.7l-91,-91M746.8,635L655.7,543.9m93.4,88.7l-91,-91m93.4,88.7L660.4,539.2m93.4,88.7l-91,-91m93.4,88.7L665.1,534.5m93.4,88.7l-91,-91m93.4,88.7L669.8,529.8m93.4,88.7l-91,-91m93.4,88.7L674.5,525.1m93.4,88.7l-91,-91m93.4,88.7L679.2,520.4m93.4,88.7l-91,-91M775,606.8L683.9,515.7m93.4,88.7l-91,-91m93.4,88.7L688.6,511M782,599.7l-91.1,-91m93.5,88.7L693.3,506.3M786.7,595L695.6,504m93.5,88.7L698,501.6m93.4,88.8L700.3,499.3M793.8,588L702.7,496.9m93.4,88.8L705,494.6m93.5,88.7L707.4,492.2M800.8,581L709.7,489.9m93.4,88.7l-91,-91.1m93.4,88.8L714.4,485.2m93.4,88.7l-91,-91m93.4,88.7L719.1,480.5m93.4,88.7l-91,-91m93.4,88.7L723.8,475.8m93.4,88.7l-91,-91m93.4,88.7L728.5,471.1" class="g4_8" />
</g>
<path d="M717.6,499.2l0,127l20.7,0l0,-127l-20.7,0Z" class="g5_8" />
<path d="M562.5,503.6l0,-24.5m-1.3,24.5l2.6,0m-2.6,-24.5l2.6,0m81.4,42.5l0,-34.4m-1.3,34.4l2.6,0m-2.6,-34.4l2.6,0M728,514.3L728,484m-1.3,30.3l2.6,0M726.7,484l2.6,0" class="g6_8" />
<path d="M562.5,491.3l0,0" class="g7_8" />
<path d="M645.2,504.4l0,0" class="g7_8" />
<path d="M728,499.2l0,0" class="g7_8" />
<path d="M735.3,456.6l0,4.1l22.5,0l0,-4.1l-22.5,0Z" class="g3_8" />
<g clip-path="url(#c28_8)">
<path d="M735.3,460.7l22.5,0l0,-4.1l-22.5,0Zm-5,-2l16.2,-16.2M732.7,461l16.2,-16.2M735,463.4l16.2,-16.2m-13.8,18.5l16.2,-16.2m-13.9,18.6l16.2,-16.2m-13.8,18.5l16.2,-16.2m-13.9,18.6l16.2,-16.3m-13.8,18.6L763,458.9" class="g8_8" />
</g>
<path d="M735.3,456.6l0,4.1l22.5,0l0,-4.1l-22.5,0Z" class="g9_8" />
<path d="M572.8,497.1l0,129.1l20.8,0l0,-129.1l-20.8,0Z" class="g3_8" />
<g clip-path="url(#c29_8)">
<path d="M572.8,626.2l20.8,0l0,-129.1l-20.8,0ZM490.7,561.6l92.5,-92.5M493,564l92.5,-92.5m-90.1,94.8l92.5,-92.5m-90.2,94.9l92.5,-92.5M500.1,571l92.5,-92.5m-90.2,94.9l92.5,-92.5m-90.1,94.8l92.5,-92.5m-90.2,94.9l92.5,-92.5m-90.2,94.8L602,487.9m-90.2,94.9l92.5,-92.5m-90.2,94.8l92.6,-92.5m-90.2,94.9L609,495m-90.2,94.8l92.6,-92.5m-90.2,94.9l92.5,-92.5m-90.2,94.8L616.1,502m-90.2,94.9l92.5,-92.5m-90.2,94.8l92.5,-92.5m-90.1,94.9l92.5,-92.5m-90.2,94.8l92.5,-92.5m-90.1,94.9l92.5,-92.5m-90.2,94.8l92.5,-92.5M540,611l92.5,-92.6m-90.2,94.9l92.5,-92.5m-90.1,94.9l92.5,-92.6M547,618l92.5,-92.5m-90.1,94.9l92.5,-92.6m-90.2,94.9l92.5,-92.5M554.1,625l92.5,-92.5m-90.2,94.9l92.5,-92.5m-90.1,94.8l92.5,-92.5m-90.2,94.9l92.5,-92.5m-90.1,94.8L656,541.9m-90.2,94.9l92.5,-92.5m-90.1,94.8l92.5,-92.5m-90.2,94.9L663,549m-90.2,94.8l92.6,-92.5m-90.2,94.9l92.5,-92.5m-90.2,94.8L670.1,556m-90.2,94.9l92.5,-92.5m-90.2,94.8l92.6,-92.5m-90.2,94.9l92.5,-92.5" class="g8_8" />
</g>
<path d="M572.8,497.1l0,129.1l20.7,0l0,-129.1l-20.7,0Z" class="g9_8" />
<path d="M655.6,515.8l0,110.4l20.7,0l0,-110.4l-20.7,0Z" class="g3_8" />
<g clip-path="url(#c30_8)">
<path d="M655.6,626.2l20.7,0l0,-110.4l-20.7,0ZM586.5,571l79.4,-79.4m-77.1,81.8l79.5,-79.5m-77.1,81.8l79.4,-79.4m-77.1,81.8L673,498.6m-77.1,81.8L675.3,501m-77.1,81.8l79.5,-79.5m-77.1,81.8L680,505.7m-77.1,81.8L682.4,508m-77.1,81.8l79.4,-79.4m-77.1,81.8l79.5,-79.5M610,594.5l79.4,-79.4m-77.1,81.8l79.5,-79.5m-77.1,81.8l79.4,-79.4M617,601.6l79.5,-79.5m-77.1,81.8l79.4,-79.4m-77.1,81.8l79.5,-79.5m-77.1,81.8l79.4,-79.4m-77.1,81.7l79.4,-79.4m-77,81.8l79.4,-79.4m-77.1,81.7l79.4,-79.4m-77,81.8l79.4,-79.4m-77.1,81.7l79.4,-79.4m-77.1,81.8l79.5,-79.4M640.5,625l79.4,-79.4m-77.1,81.8l79.5,-79.5m-77.1,81.8l79.4,-79.4m-77.1,81.8L727,552.6m-77.1,81.8L729.3,555m-77.1,81.8l79.5,-79.5m-77.1,81.8L734,559.7m-77.1,81.8L736.4,562m-77.1,81.8l79.4,-79.4m-77.1,81.8l79.5,-79.5M664,648.5l79.4,-79.4m-77.1,81.8l79.5,-79.5" class="g8_8" />
</g>
<path d="M655.6,515.9l0,110.3l20.6,0l0,-110.3l-20.6,0Z" class="g9_8" />
<path d="M738.3,503l0,123.2l20.8,0l0,-123.2l-20.8,0Z" class="g3_8" />
<g clip-path="url(#c31_8)">
<path d="M738.3,626.2l20.8,0l0,-123.2l-20.8,0ZM660.4,564.6l88.3,-88.3m-86,90.7L751,478.6m-85.9,90.7L753.4,481m-86,90.7l88.3,-88.4M669.8,574l88.3,-88.3m-86,90.7L760.4,488m-86,90.7l88.4,-88.3m-86,90.7l88.3,-88.4m-86,90.7l88.4,-88.3m-86,90.7l88.3,-88.4m-86,90.7l88.4,-88.3m-86,90.7l88.3,-88.4m-86,90.7l88.4,-88.3m-86,90.7l88.3,-88.4m-86,90.7l88.4,-88.3m-86,90.7l88.3,-88.4m-86,90.7l88.4,-88.3m-86,90.7l88.3,-88.4m-86,90.7L791,518.6m-86,90.7l88.3,-88.4m-86,90.7l88.4,-88.3m-86,90.6L798,525.6m-86,90.7L800.4,528m-86,90.6l88.3,-88.3m-86,90.7l88.4,-88.3m-86,90.6L807.4,535m-86,90.7l88.4,-88.3m-86,90.6l88.3,-88.3m-86,90.7L814.4,542m-85.9,90.7l88.3,-88.3m-86,90.7l88.3,-88.4m-85.9,90.7l88.3,-88.3m-86,90.7l88.3,-88.4m-86,90.7l88.4,-88.3m-86,90.7l88.3,-88.4m-86,90.7l88.4,-88.3m-86,90.7l88.3,-88.4m-86,90.7l88.4,-88.3m-86,90.7l88.3,-88.4" class="g8_8" />
</g>
<path d="M738.3,503.1l0,123.1l20.7,0l0,-123.1l-20.7,0Z" class="g9_8" />
<path d="M583.1,514.8l0,-35.5m-1.2,35.5l2.5,0m-2.5,-35.5l2.5,0m81.5,50.9l0,-28.7m-1.3,28.7l2.6,0m-2.6,-28.7l2.6,0m81.5,20.6l0,-38.1m-1.3,38.1l2.6,0M747.4,484l2.6,0" class="g6_8" />
<path d="M583.1,497.1l0,0" class="g7_8" />
<path d="M665.9,515.9l0,0" class="g7_8" />
<path d="M748.7,503.1l0,0" class="g7_8" />
<path d="M735.3,464.9l0,4.1l22.5,0l0,-4.1l-22.5,0Z" class="g10_8" />
<path d="M735.3,464.9l0,4.1l22.5,0l0,-4.1l-22.5,0Z" class="g11_8" />
<path d="M593.5,493.9l0,132.3l20.7,0l0,-132.3l-20.7,0Z" class="g10_8" />
<path d="M593.5,493.9l0,132.3l20.7,0l0,-132.3l-20.7,0Z" class="g11_8" />
<path d="M676.2,512.2l0,114l20.8,0l0,-114l-20.8,0Z" class="g10_8" />
<path d="M676.2,512.2l0,114l20.8,0l0,-114l-20.8,0Z" class="g11_8" />
<path d="M759,501.8l0,124.4l20.8,0l0,-124.4l-20.8,0Z" class="g10_8" />
<path d="M759,501.8l0,124.4l20.7,0l0,-124.4l-20.7,0Z" class="g11_8" />
<path d="M603.9,510.6l0,-33.3m-1.3,33.3l2.5,0m-2.5,-33.3l2.5,0m81.5,50.1l0,-30.3m-1.3,30.3l2.6,0m-2.6,-30.3l2.6,0m81.5,21.4l0,-33.4m-1.3,33.4l2.6,0m-2.6,-33.4l2.6,0" class="g6_8" />
<path d="M603.9,493.9l0,0" class="g7_8" />
<path d="M686.6,512.2l0,0" class="g7_8" />
<path d="M769.4,501.8l0,0" class="g7_8" />
<path d="M521.1,443.6l0,182.6l269,0l0,-182.6l-269,0Z" class="g2_8" />
</svg>