<?xml version="1.0" encoding="UTF-8" standalone="no"?>
<!DOCTYPE svg PUBLIC "-//W3C//DTD SVG 1.1//EN"
"http://www.w3.org/Graphics/SVG/1.1/DTD/svg11.dtd">
<svg viewBox="0 0 935 1210" version="1.1" xmlns="http://www.w3.org/2000/svg" xmlns:xlink="http://www.w3.org/1999/xlink">
<defs>
<style type="text/css"><![CDATA[
.g1_6{
fill: #FFFFFF;
}
.g2_6{
fill: #D9D9D9;
}
.g3_6{
}
]]></style>
</defs>
<path d="M475.1,261.3l382.3,0l0,-171.2l-382.3,0l0,171.2Z" class="g1_6" />
<path d="M484.8,128.5l97.6,0l0,-30.6l-97.6,0l0,30.6Z" class="g2_6" />
<path d="M493.1,105.8l82.2,0l0,14.9l-82.2,0Z" class="g2_6" />
<path d="M584.6,112.8l130.6,0l0,-14.9l-130.6,0l0,14.9Z" class="g2_6" />
<path d="M591.8,112.8l115.5,0l0,-14.9l-115.5,0l0,14.9Z" class="g2_6" />
<path d="M715.9,112.8l131.7,0l0,-14.9l-131.7,0l0,14.9Z" class="g2_6" />
<path d="M723.8,112.8l115.6,0l0,-14.9l-115.6,0l0,14.9Z" class="g2_6" />
<path d="M484.8,97.9l362.8,0l0,-2.3l-362.8,0l0,2.3Z" class="g3_6" />
<path d="M583.8,112.8l0.8,0l0,-14.9l-0.8,0l0,14.9Z" class="g3_6" />
<path d="M582.4,112.8l0.7,0l0,-14.9l-0.7,0l0,14.9Z" class="g3_6" />
<path d="M715.1,112.8l0.7,0l0,-14.9l-0.7,0l0,14.9Z" class="g3_6" />
<path d="M584.6,128.5l64.6,0l0,-14.9l-64.6,0l0,14.9Z" class="g2_6" />
<path d="M591.8,128.5l49.5,0l0,-14.9l-49.5,0l0,14.9Z" class="g2_6" />
<path d="M649.9,128.5l65.3,0l0,-14.9l-65.3,0l0,14.9Z" class="g2_6" />
<path d="M657.8,128.5l49.5,0l0,-14.9l-49.5,0l0,14.9Z" class="g2_6" />
<path d="M715.9,128.5l65.3,0l0,-14.9l-65.3,0l0,14.9Z" class="g2_6" />
<path d="M723.8,128.5l49.5,0l0,-14.9l-49.5,0l0,14.9Z" class="g2_6" />
<path d="M781.9,128.5l65.7,0l0,-14.9l-65.7,0l0,14.9Z" class="g2_6" />
<path d="M789.8,128.5l49.6,0l0,-14.9l-49.6,0l0,14.9Z" class="g2_6" />
<path d="M583.8,113.6l0.8,0l0,-0.8l-0.8,0l0,0.8Z" class="g3_6" />
<path d="M582.4,113.6l0.7,0l0,-0.8l-0.7,0l0,0.8Z" class="g3_6" />
<path d="M584.6,113.6l263,0l0,-0.8l-263,0l0,0.8Z" class="g3_6" />
<path d="M583.8,128.5l0.8,0l0,-14.9l-0.8,0l0,14.9Z" class="g3_6" />
<path d="M582.4,128.5l0.7,0l0,-14.9l-0.7,0l0,14.9Z" class="g3_6" />
<path d="M649.1,128.5l0.7,0l0,-14.9l-0.7,0l0,14.9Z" class="g3_6" />
<path d="M715.1,128.5l0.7,0l0,-14.9l-0.7,0l0,14.9Z" class="g3_6" />
<path d="M781.1,128.5l0.7,0l0,-14.9l-0.7,0l0,14.9Z" class="g3_6" />
<path d="M484.8,129.2l97.6,0l0,-0.7l-97.6,0l0,0.7Z" class="g3_6" />
<path d="M484.8,130.7l97.6,0l0,-0.7l-97.6,0l0,0.7Z" class="g3_6" />
<path d="M583.8,130.8l0.8,0l0,-0.1l-0.8,0l0,0.1Z" class="g3_6" />
<path d="M582.4,130.8l0.7,0l0,-0.1l-0.7,0l0,0.1Z" class="g3_6" />
<path d="M582.4,129.2l0.7,0l0,-0.7l-0.7,0l0,0.7Z" class="g3_6" />
<path d="M582.4,130.7l0.7,0l0,-0.7l-0.7,0l0,0.7Z" class="g3_6" />
<path d="M583.8,129.2l0.8,0l0,-0.7l-0.8,0l0,0.7Z" class="g3_6" />
<path d="M583.8,130.7l0.8,0l0,-0.7l-0.8,0l0,0.7Z" class="g3_6" />
<path d="M584.6,129.2l64.5,0l0,-0.7l-64.5,0l0,0.7Z" class="g3_6" />
<path d="M584.6,130.7l64.5,0l0,-0.7l-64.5,0l0,0.7Z" class="g3_6" />
<path d="M649.1,130.8l0.7,0l0,-0.1l-0.7,0l0,0.1Z" class="g3_6" />
<path d="M649.1,129.2l2.2,0l0,-0.7l-2.2,0l0,0.7Z" class="g3_6" />
<path d="M649.1,130.7l2.2,0l0,-0.7l-2.2,0l0,0.7Z" class="g3_6" />
<path d="M651.3,129.2l63.8,0l0,-0.7l-63.8,0l0,0.7Z" class="g3_6" />
<path d="M651.3,130.7l63.8,0l0,-0.7l-63.8,0l0,0.7Z" class="g3_6" />
<path d="M715.1,130.8l0.7,0l0,-0.1l-0.7,0l0,0.1Z" class="g3_6" />
<path d="M715.1,129.2l2.2,0l0,-0.7l-2.2,0l0,0.7Z" class="g3_6" />
<path d="M715.1,130.7l2.2,0l0,-0.7l-2.2,0l0,0.7Z" class="g3_6" />
<path d="M717.3,129.2l63.8,0l0,-0.7l-63.8,0l0,0.7Z" class="g3_6" />
<path d="M717.3,130.7l63.8,0l0,-0.7l-63.8,0l0,0.7Z" class="g3_6" />
<path d="M781.1,130.8l0.7,0l0,-0.1l-0.7,0l0,0.1Z" class="g3_6" />
<path d="M781.1,129.2l2.2,0l0,-0.7l-2.2,0l0,0.7Z" class="g3_6" />
<path d="M781.1,130.7l2.2,0l0,-0.7l-2.2,0l0,0.7Z" class="g3_6" />
<path d="M783.3,129.2l64.3,0l0,-0.7l-64.3,0l0,0.7Z" class="g3_6" />
<path d="M783.3,130.7l64.3,0l0,-0.7l-64.3,0l0,0.7Z" class="g3_6" />
<path d="M483.7,148l98.7,0l0,-2.2l-98.7,0l0,2.2Z" class="g3_6" />
<path d="M583.8,145.8l0.8,0l0,-15l-0.8,0l0,15Z" class="g3_6" />
<path d="M582.4,145.8l0.7,0l0,-15l-0.7,0l0,15Z" class="g3_6" />
<path d="M582.4,148l66.7,0l0,-2.2l-66.7,0l0,2.2Z" class="g3_6" />
<path d="M649.1,145.8l0.7,0l0,-15l-0.7,0l0,15Z" class="g3_6" />
<path d="M649.1,148l66,0l0,-2.2l-66,0l0,2.2Z" class="g3_6" />
<path d="M715.1,145.8l0.7,0l0,-15l-0.7,0l0,15Z" class="g3_6" />
<path d="M715.1,148l66,0l0,-2.2l-66,0l0,2.2Z" class="g3_6" />
<path d="M781.1,145.8l0.7,0l0,-15l-0.7,0l0,15Z" class="g3_6" />
<path d="M781.1,148l66.5,0l0,-2.2l-66.5,0l0,2.2Z" class="g3_6" />
</svg>