<?xml version="1.0" encoding="UTF-8" standalone="no"?>
<!DOCTYPE svg PUBLIC "-//W3C//DTD SVG 1.1//EN"
"http://www.w3.org/Graphics/SVG/1.1/DTD/svg11.dtd">
<svg viewBox="0 0 935 1210" version="1.1" xmlns="http://www.w3.org/2000/svg" xmlns:xlink="http://www.w3.org/1999/xlink">
<defs>
<style type="text/css"><![CDATA[
.g1_9{
}
]]></style>
</defs>
<path d="M75.5,83.2l0.8,0l0,-0.7l-0.8,0l0,0.7Z" class="g1_9" />
<path d="M75.5,83.2l0.8,0l0,-0.7l-0.8,0l0,0.7Z" class="g1_9" />
<path d="M76.3,83.2l38.1,0l0,-0.7l-38.1,0l0,0.7Z" class="g1_9" />
<path d="M114.4,83.2l0.7,0l0,-0.7l-0.7,0l0,0.7Z" class="g1_9" />
<path d="M115.1,83.2l61.3,0l0,-0.7l-61.3,0l0,0.7Z" class="g1_9" />
<path d="M176.4,83.2l0.7,0l0,-0.7l-0.7,0l0,0.7Z" class="g1_9" />
<path d="M177.1,83.2l61.2,0l0,-0.7l-61.2,0l0,0.7Z" class="g1_9" />
<path d="M238.3,83.2l0.8,0l0,-0.7l-0.8,0l0,0.7Z" class="g1_9" />
<path d="M239.1,83.2l61.2,0l0,-0.7l-61.2,0l0,0.7Z" class="g1_9" />
<path d="M300.3,83.2l0.7,0l0,-0.7l-0.7,0l0,0.7Z" class="g1_9" />
<path d="M301,83.2l61.3,0l0,-0.7l-61.3,0l0,0.7Z" class="g1_9" />
<path d="M362.3,83.2l0.7,0l0,-0.7l-0.7,0l0,0.7Z" class="g1_9" />
<path d="M363,83.2l61.2,0l0,-0.7l-61.2,0l0,0.7Z" class="g1_9" />
<path d="M424.2,83.2l0.8,0l0,-0.7l-0.8,0l0,0.7Z" class="g1_9" />
<path d="M425,83.2l61.6,0l0,-0.7l-61.6,0l0,0.7Z" class="g1_9" />
<path d="M486.6,83.2l0.7,0l0,-0.7l-0.7,0l0,0.7Z" class="g1_9" />
<path d="M487.3,83.2l61.2,0l0,-0.7l-61.2,0l0,0.7Z" class="g1_9" />
<path d="M548.5,83.2l0.8,0l0,-0.7l-0.8,0l0,0.7Z" class="g1_9" />
<path d="M549.3,83.2l61.2,0l0,-0.7l-61.2,0l0,0.7Z" class="g1_9" />
<path d="M610.5,83.2l0.7,0l0,-0.7l-0.7,0l0,0.7Z" class="g1_9" />
<path d="M611.2,83.2l61.3,0l0,-0.7l-61.3,0l0,0.7Z" class="g1_9" />
<path d="M672.5,83.2l0.7,0l0,-0.7l-0.7,0l0,0.7Z" class="g1_9" />
<path d="M673.2,83.2l61.2,0l0,-0.7l-61.2,0l0,0.7Z" class="g1_9" />
<path d="M734.4,83.2l0.8,0l0,-0.7l-0.8,0l0,0.7Z" class="g1_9" />
<path d="M735.2,83.2l61.2,0l0,-0.7l-61.2,0l0,0.7Z" class="g1_9" />
<path d="M796.4,83.2l0.7,0l0,-0.7l-0.7,0l0,0.7Z" class="g1_9" />
<path d="M797.1,83.2l61.6,0l0,-0.7l-61.6,0l0,0.7Z" class="g1_9" />
<path d="M858.7,83.2l0.8,0l0,-0.7l-0.8,0l0,0.7Z" class="g1_9" />
<path d="M858.7,83.2l0.8,0l0,-0.7l-0.8,0l0,0.7Z" class="g1_9" />
<path d="M75.5,98.3l0.8,0l0,-15.1l-0.8,0l0,15.1Z" class="g1_9" />
<path d="M114.4,98.3l0.7,0l0,-15.1l-0.7,0l0,15.1Z" class="g1_9" />
<path d="M176.4,98.3l0.7,0l0,-15.1l-0.7,0l0,15.1Z" class="g1_9" />
<path d="M238.3,98.3l0.8,0l0,-15.1l-0.8,0l0,15.1Z" class="g1_9" />
<path d="M300.3,98.3l0.7,0l0,-15.1l-0.7,0l0,15.1Z" class="g1_9" />
<path d="M362.3,98.3l0.7,0l0,-15.1l-0.7,0l0,15.1Z" class="g1_9" />
<path d="M424.2,98.3l0.8,0l0,-15.1l-0.8,0l0,15.1Z" class="g1_9" />
<path d="M486.6,98.3l0.7,0l0,-15.1l-0.7,0l0,15.1Z" class="g1_9" />
<path d="M548.5,98.3l0.8,0l0,-15.1l-0.8,0l0,15.1Z" class="g1_9" />
<path d="M610.5,98.3l0.7,0l0,-15.1l-0.7,0l0,15.1Z" class="g1_9" />
<path d="M672.5,98.3l0.7,0l0,-15.1l-0.7,0l0,15.1Z" class="g1_9" />
<path d="M734.4,98.3l0.8,0l0,-15.1l-0.8,0l0,15.1Z" class="g1_9" />
<path d="M796.4,98.3l0.7,0l0,-15.1l-0.7,0l0,15.1Z" class="g1_9" />
<path d="M858.7,98.3l0.8,0l0,-15.1l-0.8,0l0,15.1Z" class="g1_9" />
<path d="M75.5,99l0.8,0l0,-0.7l-0.8,0l0,0.7Z" class="g1_9" />
<path d="M76.3,99l38.1,0l0,-0.7l-38.1,0l0,0.7Z" class="g1_9" />
<path d="M114.4,99l0.7,0l0,-0.7l-0.7,0l0,0.7Z" class="g1_9" />
<path d="M115.1,99l61.3,0l0,-0.7l-61.3,0l0,0.7Z" class="g1_9" />
<path d="M176.4,99l0.7,0l0,-0.7l-0.7,0l0,0.7Z" class="g1_9" />
<path d="M177.1,99l61.2,0l0,-0.7l-61.2,0l0,0.7Z" class="g1_9" />
<path d="M238.3,99l0.8,0l0,-0.7l-0.8,0l0,0.7Z" class="g1_9" />
<path d="M239.1,99l61.2,0l0,-0.7l-61.2,0l0,0.7Z" class="g1_9" />
<path d="M300.3,99l0.7,0l0,-0.7l-0.7,0l0,0.7Z" class="g1_9" />
<path d="M301,99l61.3,0l0,-0.7l-61.3,0l0,0.7Z" class="g1_9" />
<path d="M362.3,99l0.7,0l0,-0.7l-0.7,0l0,0.7Z" class="g1_9" />
<path d="M363,99l61.2,0l0,-0.7l-61.2,0l0,0.7Z" class="g1_9" />
<path d="M424.2,99l0.8,0l0,-0.7l-0.8,0l0,0.7Z" class="g1_9" />
<path d="M425,99l61.6,0l0,-0.7l-61.6,0l0,0.7Z" class="g1_9" />
<path d="M486.6,99l0.7,0l0,-0.7l-0.7,0l0,0.7Z" class="g1_9" />
<path d="M487.3,99l61.2,0l0,-0.7l-61.2,0l0,0.7Z" class="g1_9" />
<path d="M548.5,99l0.8,0l0,-0.7l-0.8,0l0,0.7Z" class="g1_9" />
<path d="M549.3,99l61.2,0l0,-0.7l-61.2,0l0,0.7Z" class="g1_9" />
<path d="M610.5,99l0.7,0l0,-0.7l-0.7,0l0,0.7Z" class="g1_9" />
<path d="M611.2,99l61.3,0l0,-0.7l-61.3,0l0,0.7Z" class="g1_9" />
<path d="M672.5,99l0.7,0l0,-0.7l-0.7,0l0,0.7Z" class="g1_9" />
<path d="M673.2,99l61.2,0l0,-0.7l-61.2,0l0,0.7Z" class="g1_9" />
<path d="M734.4,99l0.8,0l0,-0.7l-0.8,0l0,0.7Z" class="g1_9" />
<path d="M735.2,99l61.2,0l0,-0.7l-61.2,0l0,0.7Z" class="g1_9" />
<path d="M796.4,99l0.7,0l0,-0.7l-0.7,0l0,0.7Z" class="g1_9" />
<path d="M797.1,99l61.6,0l0,-0.7l-61.6,0l0,0.7Z" class="g1_9" />
<path d="M858.7,99l0.8,0l0,-0.7l-0.8,0l0,0.7Z" class="g1_9" />
<path d="M75.5,114l0.8,0l0,-15l-0.8,0l0,15Z" class="g1_9" />
<path d="M114.4,114l0.7,0l0,-15l-0.7,0l0,15Z" class="g1_9" />
<path d="M176.4,114l0.7,0l0,-15l-0.7,0l0,15Z" class="g1_9" />
<path d="M238.3,114l0.8,0l0,-15l-0.8,0l0,15Z" class="g1_9" />
<path d="M300.3,114l0.7,0l0,-15l-0.7,0l0,15Z" class="g1_9" />
<path d="M362.3,114l0.7,0l0,-15l-0.7,0l0,15Z" class="g1_9" />
<path d="M424.2,114l0.8,0l0,-15l-0.8,0l0,15Z" class="g1_9" />
<path d="M486.6,114l0.7,0l0,-15l-0.7,0l0,15Z" class="g1_9" />
<path d="M548.5,114l0.8,0l0,-15l-0.8,0l0,15Z" class="g1_9" />
<path d="M610.5,114l0.7,0l0,-15l-0.7,0l0,15Z" class="g1_9" />
<path d="M672.5,114l0.7,0l0,-15l-0.7,0l0,15Z" class="g1_9" />
<path d="M734.4,114l0.8,0l0,-15l-0.8,0l0,15Z" class="g1_9" />
<path d="M796.4,114l0.7,0l0,-15l-0.7,0l0,15Z" class="g1_9" />
<path d="M858.7,114l0.8,0l0,-15l-0.8,0l0,15Z" class="g1_9" />
<path d="M75.5,114.8l0.8,0l0,-0.8l-0.8,0l0,0.8Z" class="g1_9" />
<path d="M76.3,114.8l38.1,0l0,-0.8l-38.1,0l0,0.8Z" class="g1_9" />
<path d="M114.4,114.8l0.7,0l0,-0.8l-0.7,0l0,0.8Z" class="g1_9" />
<path d="M115.1,114.8l61.3,0l0,-0.8l-61.3,0l0,0.8Z" class="g1_9" />
<path d="M176.4,114.8l0.7,0l0,-0.8l-0.7,0l0,0.8Z" class="g1_9" />
<path d="M177.1,114.8l61.2,0l0,-0.8l-61.2,0l0,0.8Z" class="g1_9" />
<path d="M238.3,114.8l0.8,0l0,-0.8l-0.8,0l0,0.8Z" class="g1_9" />
<path d="M239.1,114.8l61.2,0l0,-0.8l-61.2,0l0,0.8Z" class="g1_9" />
<path d="M300.3,114.8l0.7,0l0,-0.8l-0.7,0l0,0.8Z" class="g1_9" />
<path d="M301,114.8l61.3,0l0,-0.8L301,114l0,0.8Z" class="g1_9" />
<path d="M362.3,114.8l0.7,0l0,-0.8l-0.7,0l0,0.8Z" class="g1_9" />
<path d="M363,114.8l61.2,0l0,-0.8L363,114l0,0.8Z" class="g1_9" />
<path d="M424.2,114.8l0.8,0l0,-0.8l-0.8,0l0,0.8Z" class="g1_9" />
<path d="M425,114.8l61.6,0l0,-0.8L425,114l0,0.8Z" class="g1_9" />
<path d="M486.6,114.8l0.7,0l0,-0.8l-0.7,0l0,0.8Z" class="g1_9" />
<path d="M487.3,114.8l61.2,0l0,-0.8l-61.2,0l0,0.8Z" class="g1_9" />
<path d="M548.5,114.8l0.8,0l0,-0.8l-0.8,0l0,0.8Z" class="g1_9" />
<path d="M549.3,114.8l61.2,0l0,-0.8l-61.2,0l0,0.8Z" class="g1_9" />
<path d="M610.5,114.8l0.7,0l0,-0.8l-0.7,0l0,0.8Z" class="g1_9" />
<path d="M611.2,114.8l61.3,0l0,-0.8l-61.3,0l0,0.8Z" class="g1_9" />
<path d="M672.5,114.8l0.7,0l0,-0.8l-0.7,0l0,0.8Z" class="g1_9" />
<path d="M673.2,114.8l61.2,0l0,-0.8l-61.2,0l0,0.8Z" class="g1_9" />
<path d="M734.4,114.8l0.8,0l0,-0.8l-0.8,0l0,0.8Z" class="g1_9" />
<path d="M735.2,114.8l61.2,0l0,-0.8l-61.2,0l0,0.8Z" class="g1_9" />
<path d="M796.4,114.8l0.7,0l0,-0.8l-0.7,0l0,0.8Z" class="g1_9" />
<path d="M797.1,114.8l61.6,0l0,-0.8l-61.6,0l0,0.8Z" class="g1_9" />
<path d="M858.7,114.8l0.8,0l0,-0.8l-0.8,0l0,0.8Z" class="g1_9" />
<path d="M75.5,129.4l0.8,0l0,-14.6l-0.8,0l0,14.6Z" class="g1_9" />
<path d="M114.4,129.4l0.7,0l0,-14.6l-0.7,0l0,14.6Z" class="g1_9" />
<path d="M176.4,129.4l0.7,0l0,-14.6l-0.7,0l0,14.6Z" class="g1_9" />
<path d="M238.3,129.4l0.8,0l0,-14.6l-0.8,0l0,14.6Z" class="g1_9" />
<path d="M300.3,129.4l0.7,0l0,-14.6l-0.7,0l0,14.6Z" class="g1_9" />
<path d="M362.3,129.4l0.7,0l0,-14.6l-0.7,0l0,14.6Z" class="g1_9" />
<path d="M424.2,129.4l0.8,0l0,-14.6l-0.8,0l0,14.6Z" class="g1_9" />
<path d="M486.6,129.4l0.7,0l0,-14.6l-0.7,0l0,14.6Z" class="g1_9" />
<path d="M548.5,129.4l0.8,0l0,-14.6l-0.8,0l0,14.6Z" class="g1_9" />
<path d="M610.5,129.4l0.7,0l0,-14.6l-0.7,0l0,14.6Z" class="g1_9" />
<path d="M672.5,129.4l0.7,0l0,-14.6l-0.7,0l0,14.6Z" class="g1_9" />
<path d="M734.4,129.4l0.8,0l0,-14.6l-0.8,0l0,14.6Z" class="g1_9" />
<path d="M796.4,129.4l0.7,0l0,-14.6l-0.7,0l0,14.6Z" class="g1_9" />
<path d="M858.7,129.4l0.8,0l0,-14.6l-0.8,0l0,14.6Z" class="g1_9" />
<path d="M75.5,130.2l0.8,0l0,-0.8l-0.8,0l0,0.8Z" class="g1_9" />
<path d="M76.3,130.2l38.1,0l0,-0.8l-38.1,0l0,0.8Z" class="g1_9" />
<path d="M114.4,130.2l0.7,0l0,-0.8l-0.7,0l0,0.8Z" class="g1_9" />
<path d="M115.1,130.2l61.3,0l0,-0.8l-61.3,0l0,0.8Z" class="g1_9" />
<path d="M176.4,130.2l0.7,0l0,-0.8l-0.7,0l0,0.8Z" class="g1_9" />
<path d="M177.1,130.2l61.2,0l0,-0.8l-61.2,0l0,0.8Z" class="g1_9" />
<path d="M238.3,130.2l0.8,0l0,-0.8l-0.8,0l0,0.8Z" class="g1_9" />
<path d="M239.1,130.2l61.2,0l0,-0.8l-61.2,0l0,0.8Z" class="g1_9" />
<path d="M300.3,130.2l0.7,0l0,-0.8l-0.7,0l0,0.8Z" class="g1_9" />
<path d="M301,130.2l61.3,0l0,-0.8l-61.3,0l0,0.8Z" class="g1_9" />
<path d="M362.3,130.2l0.7,0l0,-0.8l-0.7,0l0,0.8Z" class="g1_9" />
<path d="M363,130.2l61.2,0l0,-0.8l-61.2,0l0,0.8Z" class="g1_9" />
<path d="M424.2,130.2l0.8,0l0,-0.8l-0.8,0l0,0.8Z" class="g1_9" />
<path d="M425,130.2l61.6,0l0,-0.8l-61.6,0l0,0.8Z" class="g1_9" />
<path d="M486.6,130.2l0.7,0l0,-0.8l-0.7,0l0,0.8Z" class="g1_9" />
<path d="M487.3,130.2l61.2,0l0,-0.8l-61.2,0l0,0.8Z" class="g1_9" />
<path d="M548.5,130.2l0.8,0l0,-0.8l-0.8,0l0,0.8Z" class="g1_9" />
<path d="M549.3,130.2l61.2,0l0,-0.8l-61.2,0l0,0.8Z" class="g1_9" />
<path d="M610.5,130.2l0.7,0l0,-0.8l-0.7,0l0,0.8Z" class="g1_9" />
<path d="M611.2,130.2l61.3,0l0,-0.8l-61.3,0l0,0.8Z" class="g1_9" />
<path d="M672.5,130.2l0.7,0l0,-0.8l-0.7,0l0,0.8Z" class="g1_9" />
<path d="M673.2,130.2l61.2,0l0,-0.8l-61.2,0l0,0.8Z" class="g1_9" />
<path d="M734.4,130.2l0.8,0l0,-0.8l-0.8,0l0,0.8Z" class="g1_9" />
<path d="M735.2,130.2l61.2,0l0,-0.8l-61.2,0l0,0.8Z" class="g1_9" />
<path d="M796.4,130.2l0.7,0l0,-0.8l-0.7,0l0,0.8Z" class="g1_9" />
<path d="M797.1,130.2l61.6,0l0,-0.8l-61.6,0l0,0.8Z" class="g1_9" />
<path d="M858.7,130.2l0.8,0l0,-0.8l-0.8,0l0,0.8Z" class="g1_9" />
<path d="M75.5,145.2l0.8,0l0,-15l-0.8,0l0,15Z" class="g1_9" />
<path d="M114.4,145.2l0.7,0l0,-15l-0.7,0l0,15Z" class="g1_9" />
<path d="M176.4,145.2l0.7,0l0,-15l-0.7,0l0,15Z" class="g1_9" />
<path d="M238.3,145.2l0.8,0l0,-15l-0.8,0l0,15Z" class="g1_9" />
<path d="M300.3,145.2l0.7,0l0,-15l-0.7,0l0,15Z" class="g1_9" />
<path d="M362.3,145.2l0.7,0l0,-15l-0.7,0l0,15Z" class="g1_9" />
<path d="M424.2,145.2l0.8,0l0,-15l-0.8,0l0,15Z" class="g1_9" />
<path d="M486.6,145.2l0.7,0l0,-15l-0.7,0l0,15Z" class="g1_9" />
<path d="M548.5,145.2l0.8,0l0,-15l-0.8,0l0,15Z" class="g1_9" />
<path d="M610.5,145.2l0.7,0l0,-15l-0.7,0l0,15Z" class="g1_9" />
<path d="M672.5,145.2l0.7,0l0,-15l-0.7,0l0,15Z" class="g1_9" />
<path d="M734.4,145.2l0.8,0l0,-15l-0.8,0l0,15Z" class="g1_9" />
<path d="M796.4,145.2l0.7,0l0,-15l-0.7,0l0,15Z" class="g1_9" />
<path d="M858.7,145.2l0.8,0l0,-15l-0.8,0l0,15Z" class="g1_9" />
<path d="M75.5,145.9l0.8,0l0,-0.7l-0.8,0l0,0.7Z" class="g1_9" />
<path d="M76.3,145.9l38.1,0l0,-0.7l-38.1,0l0,0.7Z" class="g1_9" />
<path d="M114.4,145.9l0.7,0l0,-0.7l-0.7,0l0,0.7Z" class="g1_9" />
<path d="M115.1,145.9l61.3,0l0,-0.7l-61.3,0l0,0.7Z" class="g1_9" />
<path d="M176.4,145.9l0.7,0l0,-0.7l-0.7,0l0,0.7Z" class="g1_9" />
<path d="M177.1,145.9l61.2,0l0,-0.7l-61.2,0l0,0.7Z" class="g1_9" />
<path d="M238.3,145.9l0.8,0l0,-0.7l-0.8,0l0,0.7Z" class="g1_9" />
<path d="M239.1,145.9l61.2,0l0,-0.7l-61.2,0l0,0.7Z" class="g1_9" />
<path d="M300.3,145.9l0.7,0l0,-0.7l-0.7,0l0,0.7Z" class="g1_9" />
<path d="M301,145.9l61.3,0l0,-0.7l-61.3,0l0,0.7Z" class="g1_9" />
<path d="M362.3,145.9l0.7,0l0,-0.7l-0.7,0l0,0.7Z" class="g1_9" />
<path d="M363,145.9l61.2,0l0,-0.7l-61.2,0l0,0.7Z" class="g1_9" />
<path d="M424.2,145.9l0.8,0l0,-0.7l-0.8,0l0,0.7Z" class="g1_9" />
<path d="M425,145.9l61.6,0l0,-0.7l-61.6,0l0,0.7Z" class="g1_9" />
<path d="M486.6,145.9l0.7,0l0,-0.7l-0.7,0l0,0.7Z" class="g1_9" />
<path d="M487.3,145.9l61.2,0l0,-0.7l-61.2,0l0,0.7Z" class="g1_9" />
<path d="M548.5,145.9l0.8,0l0,-0.7l-0.8,0l0,0.7Z" class="g1_9" />
<path d="M549.3,145.9l61.2,0l0,-0.7l-61.2,0l0,0.7Z" class="g1_9" />
<path d="M610.5,145.9l0.7,0l0,-0.7l-0.7,0l0,0.7Z" class="g1_9" />
<path d="M611.2,145.9l61.3,0l0,-0.7l-61.3,0l0,0.7Z" class="g1_9" />
<path d="M672.5,145.9l0.7,0l0,-0.7l-0.7,0l0,0.7Z" class="g1_9" />
<path d="M673.2,145.9l61.2,0l0,-0.7l-61.2,0l0,0.7Z" class="g1_9" />
<path d="M734.4,145.9l0.8,0l0,-0.7l-0.8,0l0,0.7Z" class="g1_9" />
<path d="M735.2,145.9l61.2,0l0,-0.7l-61.2,0l0,0.7Z" class="g1_9" />
<path d="M796.4,145.9l0.7,0l0,-0.7l-0.7,0l0,0.7Z" class="g1_9" />
<path d="M797.1,145.9l61.6,0l0,-0.7l-61.6,0l0,0.7Z" class="g1_9" />
<path d="M858.7,145.9l0.8,0l0,-0.7l-0.8,0l0,0.7Z" class="g1_9" />
<path d="M75.5,161l0.8,0l0,-15.1l-0.8,0l0,15.1Z" class="g1_9" />
<path d="M114.4,161l0.7,0l0,-15.1l-0.7,0l0,15.1Z" class="g1_9" />
<path d="M176.4,161l0.7,0l0,-15.1l-0.7,0l0,15.1Z" class="g1_9" />
<path d="M238.3,161l0.8,0l0,-15.1l-0.8,0l0,15.1Z" class="g1_9" />
<path d="M300.3,161l0.7,0l0,-15.1l-0.7,0l0,15.1Z" class="g1_9" />
<path d="M362.3,161l0.7,0l0,-15.1l-0.7,0l0,15.1Z" class="g1_9" />
<path d="M424.2,161l0.8,0l0,-15.1l-0.8,0l0,15.1Z" class="g1_9" />
<path d="M486.6,161l0.7,0l0,-15.1l-0.7,0l0,15.1Z" class="g1_9" />
<path d="M548.5,161l0.8,0l0,-15.1l-0.8,0l0,15.1Z" class="g1_9" />
<path d="M610.5,161l0.7,0l0,-15.1l-0.7,0l0,15.1Z" class="g1_9" />
<path d="M672.5,161l0.7,0l0,-15.1l-0.7,0l0,15.1Z" class="g1_9" />
<path d="M734.4,161l0.8,0l0,-15.1l-0.8,0l0,15.1Z" class="g1_9" />
<path d="M796.4,161l0.7,0l0,-15.1l-0.7,0l0,15.1Z" class="g1_9" />
<path d="M858.7,161l0.8,0l0,-15.1l-0.8,0l0,15.1Z" class="g1_9" />
<path d="M75.5,161.7l0.8,0l0,-0.7l-0.8,0l0,0.7Z" class="g1_9" />
<path d="M76.3,161.7l38.1,0l0,-0.7l-38.1,0l0,0.7Z" class="g1_9" />
<path d="M114.4,161.7l0.7,0l0,-0.7l-0.7,0l0,0.7Z" class="g1_9" />
<path d="M115.1,161.7l61.3,0l0,-0.7l-61.3,0l0,0.7Z" class="g1_9" />
<path d="M176.4,161.7l0.7,0l0,-0.7l-0.7,0l0,0.7Z" class="g1_9" />
<path d="M177.1,161.7l61.2,0l0,-0.7l-61.2,0l0,0.7Z" class="g1_9" />
<path d="M238.3,161.7l0.8,0l0,-0.7l-0.8,0l0,0.7Z" class="g1_9" />
<path d="M239.1,161.7l61.2,0l0,-0.7l-61.2,0l0,0.7Z" class="g1_9" />
<path d="M300.3,161.7l0.7,0l0,-0.7l-0.7,0l0,0.7Z" class="g1_9" />
<path d="M301,161.7l61.3,0l0,-0.7L301,161l0,0.7Z" class="g1_9" />
<path d="M362.3,161.7l0.7,0l0,-0.7l-0.7,0l0,0.7Z" class="g1_9" />
<path d="M363,161.7l61.2,0l0,-0.7L363,161l0,0.7Z" class="g1_9" />
<path d="M424.2,161.7l0.8,0l0,-0.7l-0.8,0l0,0.7Z" class="g1_9" />
<path d="M425,161.7l61.6,0l0,-0.7L425,161l0,0.7Z" class="g1_9" />
<path d="M486.6,161.7l0.7,0l0,-0.7l-0.7,0l0,0.7Z" class="g1_9" />
<path d="M487.3,161.7l61.2,0l0,-0.7l-61.2,0l0,0.7Z" class="g1_9" />
<path d="M548.5,161.7l0.8,0l0,-0.7l-0.8,0l0,0.7Z" class="g1_9" />
<path d="M549.3,161.7l61.2,0l0,-0.7l-61.2,0l0,0.7Z" class="g1_9" />
<path d="M610.5,161.7l0.7,0l0,-0.7l-0.7,0l0,0.7Z" class="g1_9" />
<path d="M611.2,161.7l61.3,0l0,-0.7l-61.3,0l0,0.7Z" class="g1_9" />
<path d="M672.5,161.7l0.7,0l0,-0.7l-0.7,0l0,0.7Z" class="g1_9" />
<path d="M673.2,161.7l61.2,0l0,-0.7l-61.2,0l0,0.7Z" class="g1_9" />
<path d="M734.4,161.7l0.8,0l0,-0.7l-0.8,0l0,0.7Z" class="g1_9" />
<path d="M735.2,161.7l61.2,0l0,-0.7l-61.2,0l0,0.7Z" class="g1_9" />
<path d="M796.4,161.7l0.7,0l0,-0.7l-0.7,0l0,0.7Z" class="g1_9" />
<path d="M797.1,161.7l61.6,0l0,-0.7l-61.6,0l0,0.7Z" class="g1_9" />
<path d="M858.7,161.7l0.8,0l0,-0.7l-0.8,0l0,0.7Z" class="g1_9" />
<path d="M75.5,176.7l0.8,0l0,-15l-0.8,0l0,15Z" class="g1_9" />
<path d="M114.4,176.7l0.7,0l0,-15l-0.7,0l0,15Z" class="g1_9" />
<path d="M176.4,176.7l0.7,0l0,-15l-0.7,0l0,15Z" class="g1_9" />
<path d="M238.3,176.7l0.8,0l0,-15l-0.8,0l0,15Z" class="g1_9" />
<path d="M300.3,176.7l0.7,0l0,-15l-0.7,0l0,15Z" class="g1_9" />
<path d="M362.3,176.7l0.7,0l0,-15l-0.7,0l0,15Z" class="g1_9" />
<path d="M424.2,176.7l0.8,0l0,-15l-0.8,0l0,15Z" class="g1_9" />
<path d="M486.6,176.7l0.7,0l0,-15l-0.7,0l0,15Z" class="g1_9" />
<path d="M548.5,176.7l0.8,0l0,-15l-0.8,0l0,15Z" class="g1_9" />
<path d="M610.5,176.7l0.7,0l0,-15l-0.7,0l0,15Z" class="g1_9" />
<path d="M672.5,176.7l0.7,0l0,-15l-0.7,0l0,15Z" class="g1_9" />
<path d="M734.4,176.7l0.8,0l0,-15l-0.8,0l0,15Z" class="g1_9" />
<path d="M796.4,176.7l0.7,0l0,-15l-0.7,0l0,15Z" class="g1_9" />
<path d="M858.7,176.7l0.8,0l0,-15l-0.8,0l0,15Z" class="g1_9" />
<path d="M75.5,177.5l0.8,0l0,-0.8l-0.8,0l0,0.8Z" class="g1_9" />
<path d="M76.3,177.5l38.1,0l0,-0.8l-38.1,0l0,0.8Z" class="g1_9" />
<path d="M114.4,177.5l0.7,0l0,-0.8l-0.7,0l0,0.8Z" class="g1_9" />
<path d="M115.1,177.5l61.3,0l0,-0.8l-61.3,0l0,0.8Z" class="g1_9" />
<path d="M176.4,177.5l0.7,0l0,-0.8l-0.7,0l0,0.8Z" class="g1_9" />
<path d="M177.1,177.5l61.2,0l0,-0.8l-61.2,0l0,0.8Z" class="g1_9" />
<path d="M238.3,177.5l0.8,0l0,-0.8l-0.8,0l0,0.8Z" class="g1_9" />
<path d="M239.1,177.5l61.2,0l0,-0.8l-61.2,0l0,0.8Z" class="g1_9" />
<path d="M300.3,177.5l0.7,0l0,-0.8l-0.7,0l0,0.8Z" class="g1_9" />
<path d="M301,177.5l61.3,0l0,-0.8l-61.3,0l0,0.8Z" class="g1_9" />
<path d="M362.3,177.5l0.7,0l0,-0.8l-0.7,0l0,0.8Z" class="g1_9" />
<path d="M363,177.5l61.2,0l0,-0.8l-61.2,0l0,0.8Z" class="g1_9" />
<path d="M424.2,177.5l0.8,0l0,-0.8l-0.8,0l0,0.8Z" class="g1_9" />
<path d="M425,177.5l61.6,0l0,-0.8l-61.6,0l0,0.8Z" class="g1_9" />
<path d="M486.6,177.5l0.7,0l0,-0.8l-0.7,0l0,0.8Z" class="g1_9" />
<path d="M487.3,177.5l61.2,0l0,-0.8l-61.2,0l0,0.8Z" class="g1_9" />
<path d="M548.5,177.5l0.8,0l0,-0.8l-0.8,0l0,0.8Z" class="g1_9" />
<path d="M549.3,177.5l61.2,0l0,-0.8l-61.2,0l0,0.8Z" class="g1_9" />
<path d="M610.5,177.5l0.7,0l0,-0.8l-0.7,0l0,0.8Z" class="g1_9" />
<path d="M611.2,177.5l61.3,0l0,-0.8l-61.3,0l0,0.8Z" class="g1_9" />
<path d="M672.5,177.5l0.7,0l0,-0.8l-0.7,0l0,0.8Z" class="g1_9" />
<path d="M673.2,177.5l61.2,0l0,-0.8l-61.2,0l0,0.8Z" class="g1_9" />
<path d="M734.4,177.5l0.8,0l0,-0.8l-0.8,0l0,0.8Z" class="g1_9" />
<path d="M735.2,177.5l61.2,0l0,-0.8l-61.2,0l0,0.8Z" class="g1_9" />
<path d="M796.4,177.5l0.7,0l0,-0.8l-0.7,0l0,0.8Z" class="g1_9" />
<path d="M797.1,177.5l61.6,0l0,-0.8l-61.6,0l0,0.8Z" class="g1_9" />
<path d="M858.7,177.5l0.8,0l0,-0.8l-0.8,0l0,0.8Z" class="g1_9" />
<path d="M75.5,192.5l0.8,0l0,-15l-0.8,0l0,15Z" class="g1_9" />
<path d="M114.4,192.5l0.7,0l0,-15l-0.7,0l0,15Z" class="g1_9" />
<path d="M176.4,192.5l0.7,0l0,-15l-0.7,0l0,15Z" class="g1_9" />
<path d="M238.3,192.5l0.8,0l0,-15l-0.8,0l0,15Z" class="g1_9" />
<path d="M300.3,192.5l0.7,0l0,-15l-0.7,0l0,15Z" class="g1_9" />
<path d="M362.3,192.5l0.7,0l0,-15l-0.7,0l0,15Z" class="g1_9" />
<path d="M424.2,192.5l0.8,0l0,-15l-0.8,0l0,15Z" class="g1_9" />
<path d="M486.6,192.5l0.7,0l0,-15l-0.7,0l0,15Z" class="g1_9" />
<path d="M548.5,192.5l0.8,0l0,-15l-0.8,0l0,15Z" class="g1_9" />
<path d="M610.5,192.5l0.7,0l0,-15l-0.7,0l0,15Z" class="g1_9" />
<path d="M672.5,192.5l0.7,0l0,-15l-0.7,0l0,15Z" class="g1_9" />
<path d="M734.4,192.5l0.8,0l0,-15l-0.8,0l0,15Z" class="g1_9" />
<path d="M796.4,192.5l0.7,0l0,-15l-0.7,0l0,15Z" class="g1_9" />
<path d="M858.7,192.5l0.8,0l0,-15l-0.8,0l0,15Z" class="g1_9" />
<path d="M75.5,193.2l0.8,0l0,-0.7l-0.8,0l0,0.7Z" class="g1_9" />
<path d="M76.3,193.2l38.1,0l0,-0.7l-38.1,0l0,0.7Z" class="g1_9" />
<path d="M114.4,193.2l0.7,0l0,-0.7l-0.7,0l0,0.7Z" class="g1_9" />
<path d="M115.1,193.2l61.3,0l0,-0.7l-61.3,0l0,0.7Z" class="g1_9" />
<path d="M176.4,193.2l0.7,0l0,-0.7l-0.7,0l0,0.7Z" class="g1_9" />
<path d="M177.1,193.2l61.2,0l0,-0.7l-61.2,0l0,0.7Z" class="g1_9" />
<path d="M238.3,193.2l0.8,0l0,-0.7l-0.8,0l0,0.7Z" class="g1_9" />
<path d="M239.1,193.2l61.2,0l0,-0.7l-61.2,0l0,0.7Z" class="g1_9" />
<path d="M300.3,193.2l0.7,0l0,-0.7l-0.7,0l0,0.7Z" class="g1_9" />
<path d="M301,193.2l61.3,0l0,-0.7l-61.3,0l0,0.7Z" class="g1_9" />
<path d="M362.3,193.2l0.7,0l0,-0.7l-0.7,0l0,0.7Z" class="g1_9" />
<path d="M363,193.2l61.2,0l0,-0.7l-61.2,0l0,0.7Z" class="g1_9" />
<path d="M424.2,193.2l0.8,0l0,-0.7l-0.8,0l0,0.7Z" class="g1_9" />
<path d="M425,193.2l61.6,0l0,-0.7l-61.6,0l0,0.7Z" class="g1_9" />
<path d="M486.6,193.2l0.7,0l0,-0.7l-0.7,0l0,0.7Z" class="g1_9" />
<path d="M487.3,193.2l61.2,0l0,-0.7l-61.2,0l0,0.7Z" class="g1_9" />
<path d="M548.5,193.2l0.8,0l0,-0.7l-0.8,0l0,0.7Z" class="g1_9" />
<path d="M549.3,193.2l61.2,0l0,-0.7l-61.2,0l0,0.7Z" class="g1_9" />
<path d="M610.5,193.2l0.7,0l0,-0.7l-0.7,0l0,0.7Z" class="g1_9" />
<path d="M611.2,193.2l61.3,0l0,-0.7l-61.3,0l0,0.7Z" class="g1_9" />
<path d="M672.5,193.2l0.7,0l0,-0.7l-0.7,0l0,0.7Z" class="g1_9" />
<path d="M673.2,193.2l61.2,0l0,-0.7l-61.2,0l0,0.7Z" class="g1_9" />
<path d="M734.4,193.2l0.8,0l0,-0.7l-0.8,0l0,0.7Z" class="g1_9" />
<path d="M735.2,193.2l61.2,0l0,-0.7l-61.2,0l0,0.7Z" class="g1_9" />
<path d="M796.4,193.2l0.7,0l0,-0.7l-0.7,0l0,0.7Z" class="g1_9" />
<path d="M797.1,193.2l61.6,0l0,-0.7l-61.6,0l0,0.7Z" class="g1_9" />
<path d="M858.7,193.2l0.8,0l0,-0.7l-0.8,0l0,0.7Z" class="g1_9" />
<path d="M75.5,207.9l0.8,0l0,-14.7l-0.8,0l0,14.7Z" class="g1_9" />
<path d="M114.4,207.9l0.7,0l0,-14.7l-0.7,0l0,14.7Z" class="g1_9" />
<path d="M176.4,207.9l0.7,0l0,-14.7l-0.7,0l0,14.7Z" class="g1_9" />
<path d="M238.3,207.9l0.8,0l0,-14.7l-0.8,0l0,14.7Z" class="g1_9" />
<path d="M300.3,207.9l0.7,0l0,-14.7l-0.7,0l0,14.7Z" class="g1_9" />
<path d="M362.3,207.9l0.7,0l0,-14.7l-0.7,0l0,14.7Z" class="g1_9" />
<path d="M424.2,207.9l0.8,0l0,-14.7l-0.8,0l0,14.7Z" class="g1_9" />
<path d="M486.6,207.9l0.7,0l0,-14.7l-0.7,0l0,14.7Z" class="g1_9" />
<path d="M548.5,207.9l0.8,0l0,-14.7l-0.8,0l0,14.7Z" class="g1_9" />
<path d="M610.5,207.9l0.7,0l0,-14.7l-0.7,0l0,14.7Z" class="g1_9" />
<path d="M672.5,207.9l0.7,0l0,-14.7l-0.7,0l0,14.7Z" class="g1_9" />
<path d="M734.4,207.9l0.8,0l0,-14.7l-0.8,0l0,14.7Z" class="g1_9" />
<path d="M796.4,207.9l0.7,0l0,-14.7l-0.7,0l0,14.7Z" class="g1_9" />
<path d="M858.7,207.9l0.8,0l0,-14.7l-0.8,0l0,14.7Z" class="g1_9" />
<path d="M75.5,208.6l0.8,0l0,-0.7l-0.8,0l0,0.7Z" class="g1_9" />
<path d="M76.3,208.6l38.1,0l0,-0.7l-38.1,0l0,0.7Z" class="g1_9" />
<path d="M114.4,208.6l0.7,0l0,-0.7l-0.7,0l0,0.7Z" class="g1_9" />
<path d="M115.1,208.6l61.3,0l0,-0.7l-61.3,0l0,0.7Z" class="g1_9" />
<path d="M176.4,208.6l0.7,0l0,-0.7l-0.7,0l0,0.7Z" class="g1_9" />
<path d="M177.1,208.6l61.2,0l0,-0.7l-61.2,0l0,0.7Z" class="g1_9" />
<path d="M238.3,208.6l0.8,0l0,-0.7l-0.8,0l0,0.7Z" class="g1_9" />
<path d="M239.1,208.6l61.2,0l0,-0.7l-61.2,0l0,0.7Z" class="g1_9" />
<path d="M300.3,208.6l0.7,0l0,-0.7l-0.7,0l0,0.7Z" class="g1_9" />
<path d="M301,208.6l61.3,0l0,-0.7l-61.3,0l0,0.7Z" class="g1_9" />
<path d="M362.3,208.6l0.7,0l0,-0.7l-0.7,0l0,0.7Z" class="g1_9" />
<path d="M363,208.6l61.2,0l0,-0.7l-61.2,0l0,0.7Z" class="g1_9" />
<path d="M424.2,208.6l0.8,0l0,-0.7l-0.8,0l0,0.7Z" class="g1_9" />
<path d="M425,208.6l61.6,0l0,-0.7l-61.6,0l0,0.7Z" class="g1_9" />
<path d="M486.6,208.6l0.7,0l0,-0.7l-0.7,0l0,0.7Z" class="g1_9" />
<path d="M487.3,208.6l61.2,0l0,-0.7l-61.2,0l0,0.7Z" class="g1_9" />
<path d="M548.5,208.6l0.8,0l0,-0.7l-0.8,0l0,0.7Z" class="g1_9" />
<path d="M549.3,208.6l61.2,0l0,-0.7l-61.2,0l0,0.7Z" class="g1_9" />
<path d="M610.5,208.6l0.7,0l0,-0.7l-0.7,0l0,0.7Z" class="g1_9" />
<path d="M611.2,208.6l61.3,0l0,-0.7l-61.3,0l0,0.7Z" class="g1_9" />
<path d="M672.5,208.6l0.7,0l0,-0.7l-0.7,0l0,0.7Z" class="g1_9" />
<path d="M673.2,208.6l61.2,0l0,-0.7l-61.2,0l0,0.7Z" class="g1_9" />
<path d="M734.4,208.6l0.8,0l0,-0.7l-0.8,0l0,0.7Z" class="g1_9" />
<path d="M735.2,208.6l61.2,0l0,-0.7l-61.2,0l0,0.7Z" class="g1_9" />
<path d="M796.4,208.6l0.7,0l0,-0.7l-0.7,0l0,0.7Z" class="g1_9" />
<path d="M797.1,208.6l61.6,0l0,-0.7l-61.6,0l0,0.7Z" class="g1_9" />
<path d="M858.7,208.6l0.8,0l0,-0.7l-0.8,0l0,0.7Z" class="g1_9" />
<path d="M75.5,223.7l0.8,0l0,-15.1l-0.8,0l0,15.1Z" class="g1_9" />
<path d="M114.4,223.7l0.7,0l0,-15.1l-0.7,0l0,15.1Z" class="g1_9" />
<path d="M176.4,223.7l0.7,0l0,-15.1l-0.7,0l0,15.1Z" class="g1_9" />
<path d="M238.3,223.7l0.8,0l0,-15.1l-0.8,0l0,15.1Z" class="g1_9" />
<path d="M300.3,223.7l0.7,0l0,-15.1l-0.7,0l0,15.1Z" class="g1_9" />
<path d="M362.3,223.7l0.7,0l0,-15.1l-0.7,0l0,15.1Z" class="g1_9" />
<path d="M424.2,223.7l0.8,0l0,-15.1l-0.8,0l0,15.1Z" class="g1_9" />
<path d="M486.6,223.7l0.7,0l0,-15.1l-0.7,0l0,15.1Z" class="g1_9" />
<path d="M548.5,223.7l0.8,0l0,-15.1l-0.8,0l0,15.1Z" class="g1_9" />
<path d="M610.5,223.7l0.7,0l0,-15.1l-0.7,0l0,15.1Z" class="g1_9" />
<path d="M672.5,223.7l0.7,0l0,-15.1l-0.7,0l0,15.1Z" class="g1_9" />
<path d="M734.4,223.7l0.8,0l0,-15.1l-0.8,0l0,15.1Z" class="g1_9" />
<path d="M796.4,223.7l0.7,0l0,-15.1l-0.7,0l0,15.1Z" class="g1_9" />
<path d="M858.7,223.7l0.8,0l0,-15.1l-0.8,0l0,15.1Z" class="g1_9" />
<path d="M75.5,224.4l0.8,0l0,-0.7l-0.8,0l0,0.7Z" class="g1_9" />
<path d="M76.3,224.4l38.1,0l0,-0.7l-38.1,0l0,0.7Z" class="g1_9" />
<path d="M114.4,224.4l0.7,0l0,-0.7l-0.7,0l0,0.7Z" class="g1_9" />
<path d="M115.1,224.4l61.3,0l0,-0.7l-61.3,0l0,0.7Z" class="g1_9" />
<path d="M176.4,224.4l0.7,0l0,-0.7l-0.7,0l0,0.7Z" class="g1_9" />
<path d="M177.1,224.4l61.2,0l0,-0.7l-61.2,0l0,0.7Z" class="g1_9" />
<path d="M238.3,224.4l0.8,0l0,-0.7l-0.8,0l0,0.7Z" class="g1_9" />
<path d="M239.1,224.4l61.2,0l0,-0.7l-61.2,0l0,0.7Z" class="g1_9" />
<path d="M300.3,224.4l0.7,0l0,-0.7l-0.7,0l0,0.7Z" class="g1_9" />
<path d="M301,224.4l61.3,0l0,-0.7l-61.3,0l0,0.7Z" class="g1_9" />
<path d="M362.3,224.4l0.7,0l0,-0.7l-0.7,0l0,0.7Z" class="g1_9" />
<path d="M363,224.4l61.2,0l0,-0.7l-61.2,0l0,0.7Z" class="g1_9" />
<path d="M424.2,224.4l0.8,0l0,-0.7l-0.8,0l0,0.7Z" class="g1_9" />
<path d="M425,224.4l61.6,0l0,-0.7l-61.6,0l0,0.7Z" class="g1_9" />
<path d="M486.6,224.4l0.7,0l0,-0.7l-0.7,0l0,0.7Z" class="g1_9" />
<path d="M487.3,224.4l61.2,0l0,-0.7l-61.2,0l0,0.7Z" class="g1_9" />
<path d="M548.5,224.4l0.8,0l0,-0.7l-0.8,0l0,0.7Z" class="g1_9" />
<path d="M549.3,224.4l61.2,0l0,-0.7l-61.2,0l0,0.7Z" class="g1_9" />
<path d="M610.5,224.4l0.7,0l0,-0.7l-0.7,0l0,0.7Z" class="g1_9" />
<path d="M611.2,224.4l61.3,0l0,-0.7l-61.3,0l0,0.7Z" class="g1_9" />
<path d="M672.5,224.4l0.7,0l0,-0.7l-0.7,0l0,0.7Z" class="g1_9" />
<path d="M673.2,224.4l61.2,0l0,-0.7l-61.2,0l0,0.7Z" class="g1_9" />
<path d="M734.4,224.4l0.8,0l0,-0.7l-0.8,0l0,0.7Z" class="g1_9" />
<path d="M735.2,224.4l61.2,0l0,-0.7l-61.2,0l0,0.7Z" class="g1_9" />
<path d="M796.4,224.4l0.7,0l0,-0.7l-0.7,0l0,0.7Z" class="g1_9" />
<path d="M797.1,224.4l61.6,0l0,-0.7l-61.6,0l0,0.7Z" class="g1_9" />
<path d="M858.7,224.4l0.8,0l0,-0.7l-0.8,0l0,0.7Z" class="g1_9" />
<path d="M75.5,239.4l0.8,0l0,-15l-0.8,0l0,15Z" class="g1_9" />
<path d="M114.4,239.4l0.7,0l0,-15l-0.7,0l0,15Z" class="g1_9" />
<path d="M176.4,239.4l0.7,0l0,-15l-0.7,0l0,15Z" class="g1_9" />
<path d="M238.3,239.4l0.8,0l0,-15l-0.8,0l0,15Z" class="g1_9" />
<path d="M300.3,239.4l0.7,0l0,-15l-0.7,0l0,15Z" class="g1_9" />
<path d="M362.3,239.4l0.7,0l0,-15l-0.7,0l0,15Z" class="g1_9" />
<path d="M424.2,239.4l0.8,0l0,-15l-0.8,0l0,15Z" class="g1_9" />
<path d="M486.6,239.4l0.7,0l0,-15l-0.7,0l0,15Z" class="g1_9" />
<path d="M548.5,239.4l0.8,0l0,-15l-0.8,0l0,15Z" class="g1_9" />
<path d="M610.5,239.4l0.7,0l0,-15l-0.7,0l0,15Z" class="g1_9" />
<path d="M672.5,239.4l0.7,0l0,-15l-0.7,0l0,15Z" class="g1_9" />
<path d="M734.4,239.4l0.8,0l0,-15l-0.8,0l0,15Z" class="g1_9" />
<path d="M796.4,239.4l0.7,0l0,-15l-0.7,0l0,15Z" class="g1_9" />
<path d="M858.7,239.4l0.8,0l0,-15l-0.8,0l0,15Z" class="g1_9" />
<path d="M75.5,240.2l0.8,0l0,-0.8l-0.8,0l0,0.8Z" class="g1_9" />
<path d="M76.3,240.2l38.1,0l0,-0.8l-38.1,0l0,0.8Z" class="g1_9" />
<path d="M114.4,240.2l0.7,0l0,-0.8l-0.7,0l0,0.8Z" class="g1_9" />
<path d="M115.1,240.2l61.3,0l0,-0.8l-61.3,0l0,0.8Z" class="g1_9" />
<path d="M176.4,240.2l0.7,0l0,-0.8l-0.7,0l0,0.8Z" class="g1_9" />
<path d="M177.1,240.2l61.2,0l0,-0.8l-61.2,0l0,0.8Z" class="g1_9" />
<path d="M238.3,240.2l0.8,0l0,-0.8l-0.8,0l0,0.8Z" class="g1_9" />
<path d="M239.1,240.2l61.2,0l0,-0.8l-61.2,0l0,0.8Z" class="g1_9" />
<path d="M300.3,240.2l0.7,0l0,-0.8l-0.7,0l0,0.8Z" class="g1_9" />
<path d="M301,240.2l61.3,0l0,-0.8l-61.3,0l0,0.8Z" class="g1_9" />
<path d="M362.3,240.2l0.7,0l0,-0.8l-0.7,0l0,0.8Z" class="g1_9" />
<path d="M363,240.2l61.2,0l0,-0.8l-61.2,0l0,0.8Z" class="g1_9" />
<path d="M424.2,240.2l0.8,0l0,-0.8l-0.8,0l0,0.8Z" class="g1_9" />
<path d="M425,240.2l61.6,0l0,-0.8l-61.6,0l0,0.8Z" class="g1_9" />
<path d="M486.6,240.2l0.7,0l0,-0.8l-0.7,0l0,0.8Z" class="g1_9" />
<path d="M487.3,240.2l61.2,0l0,-0.8l-61.2,0l0,0.8Z" class="g1_9" />
<path d="M548.5,240.2l0.8,0l0,-0.8l-0.8,0l0,0.8Z" class="g1_9" />
<path d="M549.3,240.2l61.2,0l0,-0.8l-61.2,0l0,0.8Z" class="g1_9" />
<path d="M610.5,240.2l0.7,0l0,-0.8l-0.7,0l0,0.8Z" class="g1_9" />
<path d="M611.2,240.2l61.3,0l0,-0.8l-61.3,0l0,0.8Z" class="g1_9" />
<path d="M672.5,240.2l0.7,0l0,-0.8l-0.7,0l0,0.8Z" class="g1_9" />
<path d="M673.2,240.2l61.2,0l0,-0.8l-61.2,0l0,0.8Z" class="g1_9" />
<path d="M734.4,240.2l0.8,0l0,-0.8l-0.8,0l0,0.8Z" class="g1_9" />
<path d="M735.2,240.2l61.2,0l0,-0.8l-61.2,0l0,0.8Z" class="g1_9" />
<path d="M796.4,240.2l0.7,0l0,-0.8l-0.7,0l0,0.8Z" class="g1_9" />
<path d="M797.1,240.2l61.6,0l0,-0.8l-61.6,0l0,0.8Z" class="g1_9" />
<path d="M858.7,240.2l0.8,0l0,-0.8l-0.8,0l0,0.8Z" class="g1_9" />
<path d="M75.5,255.2l0.8,0l0,-15l-0.8,0l0,15Z" class="g1_9" />
<path d="M114.4,255.2l0.7,0l0,-15l-0.7,0l0,15Z" class="g1_9" />
<path d="M176.4,255.2l0.7,0l0,-15l-0.7,0l0,15Z" class="g1_9" />
<path d="M238.3,255.2l0.8,0l0,-15l-0.8,0l0,15Z" class="g1_9" />
<path d="M300.3,255.2l0.7,0l0,-15l-0.7,0l0,15Z" class="g1_9" />
<path d="M362.3,255.2l0.7,0l0,-15l-0.7,0l0,15Z" class="g1_9" />
<path d="M424.2,255.2l0.8,0l0,-15l-0.8,0l0,15Z" class="g1_9" />
<path d="M486.6,255.2l0.7,0l0,-15l-0.7,0l0,15Z" class="g1_9" />
<path d="M548.5,255.2l0.8,0l0,-15l-0.8,0l0,15Z" class="g1_9" />
<path d="M610.5,255.2l0.7,0l0,-15l-0.7,0l0,15Z" class="g1_9" />
<path d="M672.5,255.2l0.7,0l0,-15l-0.7,0l0,15Z" class="g1_9" />
<path d="M734.4,255.2l0.8,0l0,-15l-0.8,0l0,15Z" class="g1_9" />
<path d="M796.4,255.2l0.7,0l0,-15l-0.7,0l0,15Z" class="g1_9" />
<path d="M858.7,255.2l0.8,0l0,-15l-0.8,0l0,15Z" class="g1_9" />
<path d="M75.5,255.9l0.8,0l0,-0.7l-0.8,0l0,0.7Z" class="g1_9" />
<path d="M76.3,255.9l38.1,0l0,-0.7l-38.1,0l0,0.7Z" class="g1_9" />
<path d="M114.4,255.9l0.7,0l0,-0.7l-0.7,0l0,0.7Z" class="g1_9" />
<path d="M115.1,255.9l61.3,0l0,-0.7l-61.3,0l0,0.7Z" class="g1_9" />
<path d="M176.4,255.9l0.7,0l0,-0.7l-0.7,0l0,0.7Z" class="g1_9" />
<path d="M177.1,255.9l61.2,0l0,-0.7l-61.2,0l0,0.7Z" class="g1_9" />
<path d="M238.3,255.9l0.8,0l0,-0.7l-0.8,0l0,0.7Z" class="g1_9" />
<path d="M239.1,255.9l61.2,0l0,-0.7l-61.2,0l0,0.7Z" class="g1_9" />
<path d="M300.3,255.9l0.7,0l0,-0.7l-0.7,0l0,0.7Z" class="g1_9" />
<path d="M301,255.9l61.3,0l0,-0.7l-61.3,0l0,0.7Z" class="g1_9" />
<path d="M362.3,255.9l0.7,0l0,-0.7l-0.7,0l0,0.7Z" class="g1_9" />
<path d="M363,255.9l61.2,0l0,-0.7l-61.2,0l0,0.7Z" class="g1_9" />
<path d="M424.2,255.9l0.8,0l0,-0.7l-0.8,0l0,0.7Z" class="g1_9" />
<path d="M425,255.9l61.6,0l0,-0.7l-61.6,0l0,0.7Z" class="g1_9" />
<path d="M486.6,255.9l0.7,0l0,-0.7l-0.7,0l0,0.7Z" class="g1_9" />
<path d="M487.3,255.9l61.2,0l0,-0.7l-61.2,0l0,0.7Z" class="g1_9" />
<path d="M548.5,255.9l0.8,0l0,-0.7l-0.8,0l0,0.7Z" class="g1_9" />
<path d="M549.3,255.9l61.2,0l0,-0.7l-61.2,0l0,0.7Z" class="g1_9" />
<path d="M610.5,255.9l0.7,0l0,-0.7l-0.7,0l0,0.7Z" class="g1_9" />
<path d="M611.2,255.9l61.3,0l0,-0.7l-61.3,0l0,0.7Z" class="g1_9" />
<path d="M672.5,255.9l0.7,0l0,-0.7l-0.7,0l0,0.7Z" class="g1_9" />
<path d="M673.2,255.9l61.2,0l0,-0.7l-61.2,0l0,0.7Z" class="g1_9" />
<path d="M734.4,255.9l0.8,0l0,-0.7l-0.8,0l0,0.7Z" class="g1_9" />
<path d="M735.2,255.9l61.2,0l0,-0.7l-61.2,0l0,0.7Z" class="g1_9" />
<path d="M796.4,255.9l0.7,0l0,-0.7l-0.7,0l0,0.7Z" class="g1_9" />
<path d="M797.1,255.9l61.6,0l0,-0.7l-61.6,0l0,0.7Z" class="g1_9" />
<path d="M858.7,255.9l0.8,0l0,-0.7l-0.8,0l0,0.7Z" class="g1_9" />
<path d="M75.5,271l0.8,0l0,-15.1l-0.8,0l0,15.1Z" class="g1_9" />
<path d="M114.4,271l0.7,0l0,-15.1l-0.7,0l0,15.1Z" class="g1_9" />
<path d="M176.4,271l0.7,0l0,-15.1l-0.7,0l0,15.1Z" class="g1_9" />
<path d="M238.3,271l0.8,0l0,-15.1l-0.8,0l0,15.1Z" class="g1_9" />
<path d="M300.3,271l0.7,0l0,-15.1l-0.7,0l0,15.1Z" class="g1_9" />
<path d="M362.3,271l0.7,0l0,-15.1l-0.7,0l0,15.1Z" class="g1_9" />
<path d="M424.2,271l0.8,0l0,-15.1l-0.8,0l0,15.1Z" class="g1_9" />
<path d="M486.6,271l0.7,0l0,-15.1l-0.7,0l0,15.1Z" class="g1_9" />
<path d="M548.5,271l0.8,0l0,-15.1l-0.8,0l0,15.1Z" class="g1_9" />
<path d="M610.5,271l0.7,0l0,-15.1l-0.7,0l0,15.1Z" class="g1_9" />
<path d="M672.5,271l0.7,0l0,-15.1l-0.7,0l0,15.1Z" class="g1_9" />
<path d="M734.4,271l0.8,0l0,-15.1l-0.8,0l0,15.1Z" class="g1_9" />
<path d="M796.4,271l0.7,0l0,-15.1l-0.7,0l0,15.1Z" class="g1_9" />
<path d="M858.7,271l0.8,0l0,-15.1l-0.8,0l0,15.1Z" class="g1_9" />
<path d="M75.5,271.7l0.8,0l0,-0.7l-0.8,0l0,0.7Z" class="g1_9" />
<path d="M76.3,271.7l38.1,0l0,-0.7l-38.1,0l0,0.7Z" class="g1_9" />
<path d="M114.4,271.7l0.7,0l0,-0.7l-0.7,0l0,0.7Z" class="g1_9" />
<path d="M115.1,271.7l61.3,0l0,-0.7l-61.3,0l0,0.7Z" class="g1_9" />
<path d="M176.4,271.7l0.7,0l0,-0.7l-0.7,0l0,0.7Z" class="g1_9" />
<path d="M177.1,271.7l61.2,0l0,-0.7l-61.2,0l0,0.7Z" class="g1_9" />
<path d="M238.3,271.7l0.8,0l0,-0.7l-0.8,0l0,0.7Z" class="g1_9" />
<path d="M239.1,271.7l61.2,0l0,-0.7l-61.2,0l0,0.7Z" class="g1_9" />
<path d="M300.3,271.7l0.7,0l0,-0.7l-0.7,0l0,0.7Z" class="g1_9" />
<path d="M301,271.7l61.3,0l0,-0.7L301,271l0,0.7Z" class="g1_9" />
<path d="M362.3,271.7l0.7,0l0,-0.7l-0.7,0l0,0.7Z" class="g1_9" />
<path d="M363,271.7l61.2,0l0,-0.7L363,271l0,0.7Z" class="g1_9" />
<path d="M424.2,271.7l0.8,0l0,-0.7l-0.8,0l0,0.7Z" class="g1_9" />
<path d="M425,271.7l61.6,0l0,-0.7L425,271l0,0.7Z" class="g1_9" />
<path d="M486.6,271.7l0.7,0l0,-0.7l-0.7,0l0,0.7Z" class="g1_9" />
<path d="M487.3,271.7l61.2,0l0,-0.7l-61.2,0l0,0.7Z" class="g1_9" />
<path d="M548.5,271.7l0.8,0l0,-0.7l-0.8,0l0,0.7Z" class="g1_9" />
<path d="M549.3,271.7l61.2,0l0,-0.7l-61.2,0l0,0.7Z" class="g1_9" />
<path d="M610.5,271.7l0.7,0l0,-0.7l-0.7,0l0,0.7Z" class="g1_9" />
<path d="M611.2,271.7l61.3,0l0,-0.7l-61.3,0l0,0.7Z" class="g1_9" />
<path d="M672.5,271.7l0.7,0l0,-0.7l-0.7,0l0,0.7Z" class="g1_9" />
<path d="M673.2,271.7l61.2,0l0,-0.7l-61.2,0l0,0.7Z" class="g1_9" />
<path d="M734.4,271.7l0.8,0l0,-0.7l-0.8,0l0,0.7Z" class="g1_9" />
<path d="M735.2,271.7l61.2,0l0,-0.7l-61.2,0l0,0.7Z" class="g1_9" />
<path d="M796.4,271.7l0.7,0l0,-0.7l-0.7,0l0,0.7Z" class="g1_9" />
<path d="M797.1,271.7l61.6,0l0,-0.7l-61.6,0l0,0.7Z" class="g1_9" />
<path d="M858.7,271.7l0.8,0l0,-0.7l-0.8,0l0,0.7Z" class="g1_9" />
<path d="M75.5,286.4l0.8,0l0,-14.7l-0.8,0l0,14.7Z" class="g1_9" />
<path d="M114.4,286.4l0.7,0l0,-14.7l-0.7,0l0,14.7Z" class="g1_9" />
<path d="M176.4,286.4l0.7,0l0,-14.7l-0.7,0l0,14.7Z" class="g1_9" />
<path d="M238.3,286.4l0.8,0l0,-14.7l-0.8,0l0,14.7Z" class="g1_9" />
<path d="M300.3,286.4l0.7,0l0,-14.7l-0.7,0l0,14.7Z" class="g1_9" />
<path d="M362.3,286.4l0.7,0l0,-14.7l-0.7,0l0,14.7Z" class="g1_9" />
<path d="M424.2,286.4l0.8,0l0,-14.7l-0.8,0l0,14.7Z" class="g1_9" />
<path d="M486.6,286.4l0.7,0l0,-14.7l-0.7,0l0,14.7Z" class="g1_9" />
<path d="M548.5,286.4l0.8,0l0,-14.7l-0.8,0l0,14.7Z" class="g1_9" />
<path d="M610.5,286.4l0.7,0l0,-14.7l-0.7,0l0,14.7Z" class="g1_9" />
<path d="M672.5,286.4l0.7,0l0,-14.7l-0.7,0l0,14.7Z" class="g1_9" />
<path d="M734.4,286.4l0.8,0l0,-14.7l-0.8,0l0,14.7Z" class="g1_9" />
<path d="M796.4,286.4l0.7,0l0,-14.7l-0.7,0l0,14.7Z" class="g1_9" />
<path d="M858.7,286.4l0.8,0l0,-14.7l-0.8,0l0,14.7Z" class="g1_9" />
<path d="M75.5,291.1l0.8,0l0,-4.7l-0.8,0l0,4.7Z" class="g1_9" />
<path d="M76.3,290.8l38.1,0l0,-4.4l-38.1,0l0,4.4Z" class="g1_9" />
<path d="M114.4,291.1l0.7,0l0,-0.3l-0.7,0l0,0.3Z" class="g1_9" />
<path d="M114.4,290.8l4.4,0l0,-4.4l-4.4,0l0,4.4Z" class="g1_9" />
<path d="M118.8,290.8l57.6,0l0,-4.4l-57.6,0l0,4.4Z" class="g1_9" />
<path d="M176.4,291.1l0.7,0l0,-0.3l-0.7,0l0,0.3Z" class="g1_9" />
<path d="M176.4,290.8l4.4,0l0,-4.4l-4.4,0l0,4.4Z" class="g1_9" />
<path d="M180.8,290.8l57.5,0l0,-4.4l-57.5,0l0,4.4Z" class="g1_9" />
<path d="M238.3,291.1l0.8,0l0,-0.3l-0.8,0l0,0.3Z" class="g1_9" />
<path d="M238.3,290.8l4.4,0l0,-4.4l-4.4,0l0,4.4Z" class="g1_9" />
<path d="M242.7,290.8l57.6,0l0,-4.4l-57.6,0l0,4.4Z" class="g1_9" />
<path d="M300.3,291.1l0.7,0l0,-0.3l-0.7,0l0,0.3Z" class="g1_9" />
<path d="M300.3,290.8l4.4,0l0,-4.4l-4.4,0l0,4.4Z" class="g1_9" />
<path d="M304.7,290.8l57.6,0l0,-4.4l-57.6,0l0,4.4Z" class="g1_9" />
<path d="M362.3,291.1l0.7,0l0,-0.3l-0.7,0l0,0.3Z" class="g1_9" />
<path d="M362.3,290.8l4.4,0l0,-4.4l-4.4,0l0,4.4Z" class="g1_9" />
<path d="M366.7,290.8l57.5,0l0,-4.4l-57.5,0l0,4.4Z" class="g1_9" />
<path d="M424.2,291.1l0.8,0l0,-0.3l-0.8,0l0,0.3Z" class="g1_9" />
<path d="M424.2,290.8l4.4,0l0,-4.4l-4.4,0l0,4.4Z" class="g1_9" />
<path d="M428.6,290.8l58,0l0,-4.4l-58,0l0,4.4Z" class="g1_9" />
<path d="M486.6,291.1l0.7,0l0,-0.3l-0.7,0l0,0.3Z" class="g1_9" />
<path d="M486.6,290.8l4.4,0l0,-4.4l-4.4,0l0,4.4Z" class="g1_9" />
<path d="M491,290.8l57.5,0l0,-4.4l-57.5,0l0,4.4Z" class="g1_9" />
<path d="M548.5,291.1l0.8,0l0,-0.3l-0.8,0l0,0.3Z" class="g1_9" />
<path d="M548.5,290.8l4.4,0l0,-4.4l-4.4,0l0,4.4Z" class="g1_9" />
<path d="M552.9,290.8l57.6,0l0,-4.4l-57.6,0l0,4.4Z" class="g1_9" />
<path d="M610.5,291.1l0.7,0l0,-0.3l-0.7,0l0,0.3Z" class="g1_9" />
<path d="M610.5,290.8l4.4,0l0,-4.4l-4.4,0l0,4.4Z" class="g1_9" />
<path d="M614.9,290.8l57.6,0l0,-4.4l-57.6,0l0,4.4Z" class="g1_9" />
<path d="M672.5,291.1l0.7,0l0,-0.3l-0.7,0l0,0.3Z" class="g1_9" />
<path d="M672.5,290.8l4.4,0l0,-4.4l-4.4,0l0,4.4Z" class="g1_9" />
<path d="M676.9,290.8l57.5,0l0,-4.4l-57.5,0l0,4.4Z" class="g1_9" />
<path d="M734.4,291.1l0.8,0l0,-0.3l-0.8,0l0,0.3Z" class="g1_9" />
<path d="M734.4,290.8l4.4,0l0,-4.4l-4.4,0l0,4.4Z" class="g1_9" />
<path d="M738.8,290.8l57.6,0l0,-4.4l-57.6,0l0,4.4Z" class="g1_9" />
<path d="M796.4,291.1l0.7,0l0,-0.3l-0.7,0l0,0.3Z" class="g1_9" />
<path d="M796.4,290.8l4.4,0l0,-4.4l-4.4,0l0,4.4Z" class="g1_9" />
<path d="M800.8,290.8l57.9,0l0,-4.4l-57.9,0l0,4.4Z" class="g1_9" />
<path d="M858.7,291.1l0.8,0l0,-4.7l-0.8,0l0,4.7Z" class="g1_9" />
<path d="M75.5,306.2l0.8,0l0,-15.1l-0.8,0l0,15.1Z" class="g1_9" />
<path d="M75.5,306.9l0.8,0l0,-0.7l-0.8,0l0,0.7Z" class="g1_9" />
<path d="M75.5,306.9l0.8,0l0,-0.7l-0.8,0l0,0.7Z" class="g1_9" />
<path d="M76.3,306.9l38.1,0l0,-0.7l-38.1,0l0,0.7Z" class="g1_9" />
<path d="M114.4,306.2l0.7,0l0,-15.1l-0.7,0l0,15.1Z" class="g1_9" />
<path d="M114.4,306.9l0.7,0l0,-0.7l-0.7,0l0,0.7Z" class="g1_9" />
<path d="M115.1,306.9l61.3,0l0,-0.7l-61.3,0l0,0.7Z" class="g1_9" />
<path d="M176.4,306.2l0.7,0l0,-15.1l-0.7,0l0,15.1Z" class="g1_9" />
<path d="M176.4,306.9l0.7,0l0,-0.7l-0.7,0l0,0.7Z" class="g1_9" />
<path d="M177.1,306.9l61.2,0l0,-0.7l-61.2,0l0,0.7Z" class="g1_9" />
<path d="M238.3,306.2l0.8,0l0,-15.1l-0.8,0l0,15.1Z" class="g1_9" />
<path d="M238.3,306.9l0.8,0l0,-0.7l-0.8,0l0,0.7Z" class="g1_9" />
<path d="M239.1,306.9l61.2,0l0,-0.7l-61.2,0l0,0.7Z" class="g1_9" />
<path d="M300.3,306.2l0.7,0l0,-15.1l-0.7,0l0,15.1Z" class="g1_9" />
<path d="M300.3,306.9l0.7,0l0,-0.7l-0.7,0l0,0.7Z" class="g1_9" />
<path d="M301,306.9l61.3,0l0,-0.7l-61.3,0l0,0.7Z" class="g1_9" />
<path d="M362.3,306.2l0.7,0l0,-15.1l-0.7,0l0,15.1Z" class="g1_9" />
<path d="M362.3,306.9l0.7,0l0,-0.7l-0.7,0l0,0.7Z" class="g1_9" />
<path d="M363,306.9l61.2,0l0,-0.7l-61.2,0l0,0.7Z" class="g1_9" />
<path d="M424.2,306.2l0.8,0l0,-15.1l-0.8,0l0,15.1Z" class="g1_9" />
<path d="M424.2,306.9l0.8,0l0,-0.7l-0.8,0l0,0.7Z" class="g1_9" />
<path d="M425,306.9l61.6,0l0,-0.7l-61.6,0l0,0.7Z" class="g1_9" />
<path d="M486.6,306.2l0.7,0l0,-15.1l-0.7,0l0,15.1Z" class="g1_9" />
<path d="M486.6,306.9l0.7,0l0,-0.7l-0.7,0l0,0.7Z" class="g1_9" />
<path d="M487.3,306.9l61.2,0l0,-0.7l-61.2,0l0,0.7Z" class="g1_9" />
<path d="M548.5,306.2l0.8,0l0,-15.1l-0.8,0l0,15.1Z" class="g1_9" />
<path d="M548.5,306.9l0.8,0l0,-0.7l-0.8,0l0,0.7Z" class="g1_9" />
<path d="M549.3,306.9l61.2,0l0,-0.7l-61.2,0l0,0.7Z" class="g1_9" />
<path d="M610.5,306.2l0.7,0l0,-15.1l-0.7,0l0,15.1Z" class="g1_9" />
<path d="M610.5,306.9l0.7,0l0,-0.7l-0.7,0l0,0.7Z" class="g1_9" />
<path d="M611.2,306.9l61.3,0l0,-0.7l-61.3,0l0,0.7Z" class="g1_9" />
<path d="M672.5,306.2l0.7,0l0,-15.1l-0.7,0l0,15.1Z" class="g1_9" />
<path d="M672.5,306.9l0.7,0l0,-0.7l-0.7,0l0,0.7Z" class="g1_9" />
<path d="M673.2,306.9l61.2,0l0,-0.7l-61.2,0l0,0.7Z" class="g1_9" />
<path d="M734.4,306.2l0.8,0l0,-15.1l-0.8,0l0,15.1Z" class="g1_9" />
<path d="M734.4,306.9l0.8,0l0,-0.7l-0.8,0l0,0.7Z" class="g1_9" />
<path d="M735.2,306.9l61.2,0l0,-0.7l-61.2,0l0,0.7Z" class="g1_9" />
<path d="M796.4,306.2l0.7,0l0,-15.1l-0.7,0l0,15.1Z" class="g1_9" />
<path d="M796.4,306.9l0.7,0l0,-0.7l-0.7,0l0,0.7Z" class="g1_9" />
<path d="M797.1,306.9l61.6,0l0,-0.7l-61.6,0l0,0.7Z" class="g1_9" />
<path d="M858.7,306.2l0.8,0l0,-15.1l-0.8,0l0,15.1Z" class="g1_9" />
<path d="M858.7,306.9l0.8,0l0,-0.7l-0.8,0l0,0.7Z" class="g1_9" />
<path d="M858.7,306.9l0.8,0l0,-0.7l-0.8,0l0,0.7Z" class="g1_9" />
</svg>