<?xml version="1.0" encoding="UTF-8" standalone="no"?>
<!DOCTYPE svg PUBLIC "-//W3C//DTD SVG 1.1//EN"
"http://www.w3.org/Graphics/SVG/1.1/DTD/svg11.dtd">
<svg viewBox="0 0 909 1286" version="1.1" xmlns="http://www.w3.org/2000/svg" xmlns:xlink="http://www.w3.org/1999/xlink">
<defs>
<style type="text/css"><![CDATA[
.g1_7{
fill: none;
stroke: #000000;
stroke-width: 0.7609861;
stroke-linecap: butt;
stroke-linejoin: miter;
}
]]></style>
</defs>
<image preserveAspectRatio="none" x="155" y="82" width="219" height="328" xlink:href="img/1.png" />
<image preserveAspectRatio="none" x="137" y="447" width="256" height="245" xlink:href="img/2.png" />
<path d="M536.5,82.6l260.4,0" class="g1_7" />
<path d="M536.5,96.7l0,-13.7" class="g1_7" />
<path d="M618.7,96.7l0,-13.7" class="g1_7" />
<path d="M621.5,96.7l0,-13.7" class="g1_7" />
<path d="M674.2,96.7l0,-13.7" class="g1_7" />
<path d="M726.9,96.7l0,-13.7" class="g1_7" />
<path d="M796.9,96.7l0,-13.7" class="g1_7" />
<path d="M536.5,97l260.4,0" class="g1_7" />
<path d="M536.5,111.1l0,-13.7" class="g1_7" />
<path d="M618.7,111.1l0,-13.7" class="g1_7" />
<path d="M621.5,111.1l0,-13.7" class="g1_7" />
<path d="M674.2,111.1l0,-13.7" class="g1_7" />
<path d="M726.9,111.1l0,-13.7" class="g1_7" />
<path d="M796.9,111.1l0,-13.7" class="g1_7" />
<path d="M536.5,124.8l0,-13.7" class="g1_7" />
<path d="M618.7,124.8l0,-13.7" class="g1_7" />
<path d="M621.5,124.8l0,-13.7" class="g1_7" />
<path d="M674.2,124.8l0,-13.7" class="g1_7" />
<path d="M726.9,124.8l0,-13.7" class="g1_7" />
<path d="M796.9,124.8l0,-13.7" class="g1_7" />
<path d="M536.5,138.5l0,-13.7" class="g1_7" />
<path d="M618.7,138.5l0,-13.7" class="g1_7" />
<path d="M621.5,138.5l0,-13.7" class="g1_7" />
<path d="M674.2,138.5l0,-13.7" class="g1_7" />
<path d="M726.9,138.5l0,-13.7" class="g1_7" />
<path d="M796.9,138.5l0,-13.7" class="g1_7" />
<path d="M536.5,138.9l260.4,0" class="g1_7" />
<path d="M536.5,153l0,-13.7" class="g1_7" />
<path d="M618.7,153l0,-13.7" class="g1_7" />
<path d="M621.5,153l0,-13.7" class="g1_7" />
<path d="M674.2,153l0,-13.7" class="g1_7" />
<path d="M726.9,153l0,-13.7" class="g1_7" />
<path d="M796.9,153l0,-13.7" class="g1_7" />
<path d="M536.5,166.7l0,-13.7" class="g1_7" />
<path d="M618.7,166.7l0,-13.7" class="g1_7" />
<path d="M621.5,166.7l0,-13.7" class="g1_7" />
<path d="M674.2,166.7l0,-13.7" class="g1_7" />
<path d="M726.9,166.7l0,-13.7" class="g1_7" />
<path d="M796.9,166.7l0,-13.7" class="g1_7" />
<path d="M536.5,180.4l0,-13.7" class="g1_7" />
<path d="M618.7,180.4l0,-13.7" class="g1_7" />
<path d="M621.5,180.4l0,-13.7" class="g1_7" />
<path d="M674.2,180.4l0,-13.7" class="g1_7" />
<path d="M726.9,180.4l0,-13.7" class="g1_7" />
<path d="M796.9,180.4l0,-13.7" class="g1_7" />
<path d="M536.5,194.1l0,-13.7" class="g1_7" />
<path d="M618.7,194.1l0,-13.7" class="g1_7" />
<path d="M621.5,194.1l0,-13.7" class="g1_7" />
<path d="M674.2,194.1l0,-13.7" class="g1_7" />
<path d="M726.9,194.1l0,-13.7" class="g1_7" />
<path d="M796.9,194.1l0,-13.7" class="g1_7" />
<path d="M536.5,207.8l0,-13.7" class="g1_7" />
<path d="M618.7,207.8l0,-13.7" class="g1_7" />
<path d="M621.5,207.8l0,-13.7" class="g1_7" />
<path d="M674.2,207.8l0,-13.7" class="g1_7" />
<path d="M726.9,207.8l0,-13.7" class="g1_7" />
<path d="M796.9,207.8l0,-13.7" class="g1_7" />
<path d="M536.5,221.5l0,-13.7" class="g1_7" />
<path d="M618.7,221.5l0,-13.7" class="g1_7" />
<path d="M621.5,221.5l0,-13.7" class="g1_7" />
<path d="M674.2,221.5l0,-13.7" class="g1_7" />
<path d="M726.9,221.5l0,-13.7" class="g1_7" />
<path d="M796.9,221.5l0,-13.7" class="g1_7" />
<path d="M536.5,221.8l260.4,0" class="g1_7" />
<path d="M536.5,259.7l260.4,0" class="g1_7" />
<path d="M536.5,273.8l0,-13.7" class="g1_7" />
<path d="M618.7,273.8l0,-13.7" class="g1_7" />
<path d="M621.5,273.8l0,-13.7" class="g1_7" />
<path d="M674.2,273.8l0,-13.7" class="g1_7" />
<path d="M726.9,273.8l0,-13.7" class="g1_7" />
<path d="M796.9,273.8l0,-13.7" class="g1_7" />
<path d="M536.5,274.1l260.4,0" class="g1_7" />
<path d="M536.5,288.2l0,-13.7" class="g1_7" />
<path d="M618.7,288.2l0,-13.7" class="g1_7" />
<path d="M621.5,288.2l0,-13.7" class="g1_7" />
<path d="M674.2,288.2l0,-13.7" class="g1_7" />
<path d="M726.9,288.2l0,-13.7" class="g1_7" />
<path d="M796.9,288.2l0,-13.7" class="g1_7" />
<path d="M536.5,301.9l0,-13.7" class="g1_7" />
<path d="M618.7,301.9l0,-13.7" class="g1_7" />
<path d="M621.5,301.9l0,-13.7" class="g1_7" />
<path d="M674.2,301.9l0,-13.7" class="g1_7" />
<path d="M726.9,301.9l0,-13.7" class="g1_7" />
<path d="M796.9,301.9l0,-13.7" class="g1_7" />
<path d="M536.5,315.6l0,-13.7" class="g1_7" />
<path d="M618.7,315.6l0,-13.7" class="g1_7" />
<path d="M621.5,315.6l0,-13.7" class="g1_7" />
<path d="M674.2,315.6l0,-13.7" class="g1_7" />
<path d="M726.9,315.6l0,-13.7" class="g1_7" />
<path d="M796.9,315.6l0,-13.7" class="g1_7" />
<path d="M536.5,316l260.4,0" class="g1_7" />
<path d="M536.5,330.1l0,-13.7" class="g1_7" />
<path d="M618.7,330.1l0,-13.7" class="g1_7" />
<path d="M621.5,330.1l0,-13.7" class="g1_7" />
<path d="M674.2,330.1l0,-13.7" class="g1_7" />
<path d="M726.9,330.1l0,-13.7" class="g1_7" />
<path d="M796.9,330.1l0,-13.7" class="g1_7" />
<path d="M536.5,343.8l0,-13.7" class="g1_7" />
<path d="M618.7,343.8l0,-13.7" class="g1_7" />
<path d="M621.5,343.8l0,-13.7" class="g1_7" />
<path d="M674.2,343.8l0,-13.7" class="g1_7" />
<path d="M726.9,343.8l0,-13.7" class="g1_7" />
<path d="M796.9,343.8l0,-13.7" class="g1_7" />
<path d="M536.5,357.5l0,-13.7" class="g1_7" />
<path d="M618.7,357.5l0,-13.7" class="g1_7" />
<path d="M621.5,357.5l0,-13.7" class="g1_7" />
<path d="M674.2,357.5l0,-13.7" class="g1_7" />
<path d="M726.9,357.5l0,-13.7" class="g1_7" />
<path d="M796.9,357.5l0,-13.7" class="g1_7" />
<path d="M536.5,371.2l0,-13.7" class="g1_7" />
<path d="M618.7,371.2l0,-13.7" class="g1_7" />
<path d="M621.5,371.2l0,-13.7" class="g1_7" />
<path d="M674.2,371.2l0,-13.7" class="g1_7" />
<path d="M726.9,371.2l0,-13.7" class="g1_7" />
<path d="M796.9,371.2l0,-13.7" class="g1_7" />
<path d="M536.5,384.9l0,-13.7" class="g1_7" />
<path d="M618.7,384.9l0,-13.7" class="g1_7" />
<path d="M621.5,384.9l0,-13.7" class="g1_7" />
<path d="M674.2,384.9l0,-13.7" class="g1_7" />
<path d="M726.9,384.9l0,-13.7" class="g1_7" />
<path d="M796.9,384.9l0,-13.7" class="g1_7" />
<path d="M536.5,398.6l0,-13.7" class="g1_7" />
<path d="M618.7,398.6l0,-13.7" class="g1_7" />
<path d="M621.5,398.6l0,-13.7" class="g1_7" />
<path d="M674.2,398.6l0,-13.7" class="g1_7" />
<path d="M726.9,398.6l0,-13.7" class="g1_7" />
<path d="M796.9,398.6l0,-13.7" class="g1_7" />
<path d="M536.5,399l260.4,0" class="g1_7" />
</svg>