<?xml version="1.0" encoding="UTF-8" standalone="no"?>
<!DOCTYPE svg PUBLIC "-//W3C//DTD SVG 1.1//EN"
"http://www.w3.org/Graphics/SVG/1.1/DTD/svg11.dtd">
<svg viewBox="0 0 909 1286" version="1.1" xmlns="http://www.w3.org/2000/svg" xmlns:xlink="http://www.w3.org/1999/xlink">
<defs>
<style type="text/css"><![CDATA[
.g1_9{
fill: none;
stroke: #000000;
stroke-width: 0.7609861;
stroke-linecap: butt;
stroke-linejoin: miter;
}
]]></style>
</defs>
<path d="M126.3,82.6l277.1,0" class="g1_9" />
<path d="M126.3,96.7l0,-13.7" class="g1_9" />
<path d="M214.3,96.7l0,-13.7" class="g1_9" />
<path d="M217,96.7L217,83" class="g1_9" />
<path d="M272.9,96.7l0,-13.7" class="g1_9" />
<path d="M328.8,96.7l0,-13.7" class="g1_9" />
<path d="M403.4,96.7l0,-13.7" class="g1_9" />
<path d="M126.3,97l277.1,0" class="g1_9" />
<path d="M126.3,111.1l0,-13.7" class="g1_9" />
<path d="M214.3,111.1l0,-13.7" class="g1_9" />
<path d="M217,111.1l0,-13.7" class="g1_9" />
<path d="M272.9,111.1l0,-13.7" class="g1_9" />
<path d="M328.8,111.1l0,-13.7" class="g1_9" />
<path d="M403.4,111.1l0,-13.7" class="g1_9" />
<path d="M126.3,124.8l0,-13.7" class="g1_9" />
<path d="M214.3,124.8l0,-13.7" class="g1_9" />
<path d="M217,124.8l0,-13.7" class="g1_9" />
<path d="M272.9,124.8l0,-13.7" class="g1_9" />
<path d="M328.8,124.8l0,-13.7" class="g1_9" />
<path d="M403.4,124.8l0,-13.7" class="g1_9" />
<path d="M126.3,138.5l0,-13.7" class="g1_9" />
<path d="M214.3,138.5l0,-13.7" class="g1_9" />
<path d="M217,138.5l0,-13.7" class="g1_9" />
<path d="M272.9,138.5l0,-13.7" class="g1_9" />
<path d="M328.8,138.5l0,-13.7" class="g1_9" />
<path d="M403.4,138.5l0,-13.7" class="g1_9" />
<path d="M126.3,138.9l277.1,0" class="g1_9" />
<path d="M126.3,153l0,-13.7" class="g1_9" />
<path d="M214.3,153l0,-13.7" class="g1_9" />
<path d="M217,153l0,-13.7" class="g1_9" />
<path d="M272.9,153l0,-13.7" class="g1_9" />
<path d="M328.8,153l0,-13.7" class="g1_9" />
<path d="M403.4,153l0,-13.7" class="g1_9" />
<path d="M126.3,166.7l0,-13.7" class="g1_9" />
<path d="M214.3,166.7l0,-13.7" class="g1_9" />
<path d="M217,166.7L217,153" class="g1_9" />
<path d="M272.9,166.7l0,-13.7" class="g1_9" />
<path d="M328.8,166.7l0,-13.7" class="g1_9" />
<path d="M403.4,166.7l0,-13.7" class="g1_9" />
<path d="M126.3,180.4l0,-13.7" class="g1_9" />
<path d="M214.3,180.4l0,-13.7" class="g1_9" />
<path d="M217,180.4l0,-13.7" class="g1_9" />
<path d="M272.9,180.4l0,-13.7" class="g1_9" />
<path d="M328.8,180.4l0,-13.7" class="g1_9" />
<path d="M403.4,180.4l0,-13.7" class="g1_9" />
<path d="M126.3,194.1l0,-13.7" class="g1_9" />
<path d="M214.3,194.1l0,-13.7" class="g1_9" />
<path d="M217,194.1l0,-13.7" class="g1_9" />
<path d="M272.9,194.1l0,-13.7" class="g1_9" />
<path d="M328.8,194.1l0,-13.7" class="g1_9" />
<path d="M403.4,194.1l0,-13.7" class="g1_9" />
<path d="M126.3,207.8l0,-13.7" class="g1_9" />
<path d="M214.3,207.8l0,-13.7" class="g1_9" />
<path d="M217,207.8l0,-13.7" class="g1_9" />
<path d="M272.9,207.8l0,-13.7" class="g1_9" />
<path d="M328.8,207.8l0,-13.7" class="g1_9" />
<path d="M403.4,207.8l0,-13.7" class="g1_9" />
<path d="M126.3,221.5l0,-13.7" class="g1_9" />
<path d="M214.3,221.5l0,-13.7" class="g1_9" />
<path d="M217,221.5l0,-13.7" class="g1_9" />
<path d="M272.9,221.5l0,-13.7" class="g1_9" />
<path d="M328.8,221.5l0,-13.7" class="g1_9" />
<path d="M403.4,221.5l0,-13.7" class="g1_9" />
<path d="M126.3,221.8l277.1,0" class="g1_9" />
<path d="M126.3,259.7l277.1,0" class="g1_9" />
<path d="M126.3,273.8l0,-13.7" class="g1_9" />
<path d="M214.3,273.8l0,-13.7" class="g1_9" />
<path d="M217,273.8l0,-13.7" class="g1_9" />
<path d="M272.9,273.8l0,-13.7" class="g1_9" />
<path d="M328.8,273.8l0,-13.7" class="g1_9" />
<path d="M403.4,273.8l0,-13.7" class="g1_9" />
<path d="M126.3,274.1l277.1,0" class="g1_9" />
<path d="M126.3,288.2l0,-13.7" class="g1_9" />
<path d="M214.3,288.2l0,-13.7" class="g1_9" />
<path d="M217,288.2l0,-13.7" class="g1_9" />
<path d="M272.9,288.2l0,-13.7" class="g1_9" />
<path d="M328.8,288.2l0,-13.7" class="g1_9" />
<path d="M403.4,288.2l0,-13.7" class="g1_9" />
<path d="M126.3,301.9l0,-13.7" class="g1_9" />
<path d="M214.3,301.9l0,-13.7" class="g1_9" />
<path d="M217,301.9l0,-13.7" class="g1_9" />
<path d="M272.9,301.9l0,-13.7" class="g1_9" />
<path d="M328.8,301.9l0,-13.7" class="g1_9" />
<path d="M403.4,301.9l0,-13.7" class="g1_9" />
<path d="M126.3,315.6l0,-13.7" class="g1_9" />
<path d="M214.3,315.6l0,-13.7" class="g1_9" />
<path d="M217,315.6l0,-13.7" class="g1_9" />
<path d="M272.9,315.6l0,-13.7" class="g1_9" />
<path d="M328.8,315.6l0,-13.7" class="g1_9" />
<path d="M403.4,315.6l0,-13.7" class="g1_9" />
<path d="M126.3,316l277.1,0" class="g1_9" />
<path d="M126.3,330.1l0,-13.7" class="g1_9" />
<path d="M214.3,330.1l0,-13.7" class="g1_9" />
<path d="M217,330.1l0,-13.7" class="g1_9" />
<path d="M272.9,330.1l0,-13.7" class="g1_9" />
<path d="M328.8,330.1l0,-13.7" class="g1_9" />
<path d="M403.4,330.1l0,-13.7" class="g1_9" />
<path d="M126.3,343.8l0,-13.7" class="g1_9" />
<path d="M214.3,343.8l0,-13.7" class="g1_9" />
<path d="M217,343.8l0,-13.7" class="g1_9" />
<path d="M272.9,343.8l0,-13.7" class="g1_9" />
<path d="M328.8,343.8l0,-13.7" class="g1_9" />
<path d="M403.4,343.8l0,-13.7" class="g1_9" />
<path d="M126.3,357.5l0,-13.7" class="g1_9" />
<path d="M214.3,357.5l0,-13.7" class="g1_9" />
<path d="M217,357.5l0,-13.7" class="g1_9" />
<path d="M272.9,357.5l0,-13.7" class="g1_9" />
<path d="M328.8,357.5l0,-13.7" class="g1_9" />
<path d="M403.4,357.5l0,-13.7" class="g1_9" />
<path d="M126.3,371.2l0,-13.7" class="g1_9" />
<path d="M214.3,371.2l0,-13.7" class="g1_9" />
<path d="M217,371.2l0,-13.7" class="g1_9" />
<path d="M272.9,371.2l0,-13.7" class="g1_9" />
<path d="M328.8,371.2l0,-13.7" class="g1_9" />
<path d="M403.4,371.2l0,-13.7" class="g1_9" />
<path d="M126.3,384.9l0,-13.7" class="g1_9" />
<path d="M214.3,384.9l0,-13.7" class="g1_9" />
<path d="M217,384.9l0,-13.7" class="g1_9" />
<path d="M272.9,384.9l0,-13.7" class="g1_9" />
<path d="M328.8,384.9l0,-13.7" class="g1_9" />
<path d="M403.4,384.9l0,-13.7" class="g1_9" />
<path d="M126.3,398.6l0,-13.7" class="g1_9" />
<path d="M214.3,398.6l0,-13.7" class="g1_9" />
<path d="M217,398.6l0,-13.7" class="g1_9" />
<path d="M272.9,398.6l0,-13.7" class="g1_9" />
<path d="M328.8,398.6l0,-13.7" class="g1_9" />
<path d="M403.4,398.6l0,-13.7" class="g1_9" />
<path d="M126.3,399l277.1,0" class="g1_9" />
</svg>